<?xml version="1.0" standalone="no"?>
<!DOCTYPE svg PUBLIC "-//W3C//DTD SVG 20010904//EN"
 "http://www.w3.org/TR/2001/REC-SVG-20010904/DTD/svg10.dtd">
<svg version="1.0" xmlns="http://www.w3.org/2000/svg"
 width="1080.000000pt" height="1146.000000pt" viewBox="0 0 1080.000000 1146.000000"
 preserveAspectRatio="xMidYMid meet">

<g transform="translate(0.000000,1146.000000) scale(0.100000,-0.100000)"
fill="#000000" stroke="none">
<path d="M5461 11090 c-1 -88 -14 -129 -65 -202 -23 -35 -72 -106 -108 -158
-36 -52 -86 -133 -111 -180 -89 -165 -244 -536 -273 -653 -9 -37 -19 -66 -21
-63 -2 2 -15 62 -29 133 -45 235 -41 491 12 692 8 30 14 59 14 64 0 36 -84
-103 -125 -208 -15 -38 -45 -90 -67 -115 -71 -80 -178 -336 -222 -530 -27
-116 -47 -302 -47 -438 l0 -133 -39 31 c-21 17 -62 56 -90 88 -29 31 -170 171
-314 310 -294 286 -290 280 -368 517 -22 66 -43 124 -48 128 -10 11 -36 -105
-45 -203 -4 -41 -15 -97 -26 -125 -35 -96 -68 -267 -103 -530 -30 -220 -6
-635 49 -847 8 -33 15 -62 15 -65 0 -3 -15 5 -32 16 -47 31 -166 91 -212 108
-22 7 -177 45 -344 83 -167 38 -322 78 -345 88 -23 10 -83 45 -132 77 -50 32
-129 82 -177 111 l-88 54 0 -53 c1 -140 72 -428 157 -632 102 -244 294 -544
456 -712 l41 -43 -242 0 c-282 0 -391 12 -630 71 -115 28 -181 50 -228 75 -36
20 -68 34 -71 31 -3 -4 8 -23 25 -44 16 -21 69 -105 117 -188 135 -231 229
-368 303 -443 l68 -69 -34 -44 c-86 -109 -141 -279 -144 -444 -3 -104 -1 -113
26 -170 45 -92 123 -162 239 -218 54 -26 109 -50 123 -53 13 -3 26 -9 28 -13
4 -6 -162 -52 -324 -88 -77 -18 -374 -27 -402 -12 -11 6 -18 6 -18 0 0 -5 9
-13 21 -16 12 -4 96 -80 188 -169 91 -88 183 -172 204 -186 20 -14 37 -29 37
-33 0 -5 -4 -6 -9 -2 -6 3 -28 2 -51 -1 -50 -8 -71 -41 -59 -94 9 -41 37 -68
214 -205 155 -120 360 -322 443 -437 34 -46 98 -141 143 -213 192 -302 223
-329 531 -456 68 -27 126 -53 129 -57 7 -8 -40 -331 -65 -450 -9 -40 -25 -90
-36 -112 -11 -22 -18 -40 -15 -40 19 0 390 208 483 271 23 16 44 29 46 29 2 0
16 -21 33 -47 16 -27 66 -89 111 -139 l80 -91 7 -89 c12 -149 -39 -310 -129
-413 l-21 -24 30 7 c39 10 373 167 447 211 l57 34 157 -74 c87 -41 170 -79
186 -84 24 -9 27 -13 19 -33 -5 -13 -7 -36 -4 -50 7 -36 -12 -43 -46 -19 -16
12 -43 21 -60 21 -39 0 -61 -40 -59 -103 2 -49 -13 -77 -43 -77 -10 0 -21 -5
-25 -11 -15 -24 -25 20 -11 48 20 42 11 59 -48 92 -59 34 -85 64 -85 99 0 38
-23 20 -43 -34 -22 -57 -19 -123 6 -174 21 -41 22 -129 3 -175 -17 -41 -38
-39 -58 6 -17 38 -38 34 -61 -13 -23 -46 -34 -142 -18 -152 37 -23 -8 -67
-151 -145 l-78 -43 -147 72 c-335 163 -561 300 -963 584 -361 254 -640 468
-764 586 -80 76 -198 214 -248 291 -126 193 -157 245 -198 334 -26 55 -58 132
-70 170 -27 82 -37 72 -20 -23 26 -153 133 -383 261 -564 44 -62 89 -130 100
-150 11 -21 47 -59 82 -85 35 -26 76 -63 90 -82 38 -49 37 -78 -9 -220 -13
-40 -13 -46 2 -63 10 -10 27 -18 38 -18 12 0 29 -7 39 -14 10 -8 27 -12 37 -9
28 7 26 -36 -5 -111 -23 -58 -24 -61 -8 -108 15 -47 52 -88 79 -88 7 0 27 18
45 39 17 22 38 42 46 46 21 8 43 -13 43 -40 0 -13 7 -25 15 -29 12 -4 15 -27
15 -118 0 -95 3 -118 20 -146 24 -40 60 -57 76 -36 17 21 27 18 64 -21 19 -19
43 -35 54 -35 28 0 94 24 108 38 7 7 17 12 24 12 24 0 66 -45 88 -94 28 -63
57 -90 89 -84 19 4 26 -1 34 -23 12 -30 -2 -49 -49 -73 -32 -16 -45 -59 -28
-91 17 -31 78 -96 104 -111 15 -8 20 -22 21 -60 3 -110 44 -139 156 -110 41
11 74 15 79 10 5 -5 -13 -41 -43 -85 -79 -115 -171 -282 -221 -399 -108 -254
-197 -455 -260 -581 -38 -76 -66 -143 -64 -150 5 -16 110 181 176 331 27 63
66 151 85 195 87 199 154 338 211 435 l61 105 7 -135 c3 -74 14 -173 23 -220
37 -193 164 -642 188 -665 7 -7 8 -5 4 6 -20 59 -83 282 -116 415 -65 259 -81
360 -81 505 0 149 -4 140 108 267 112 126 169 160 622 375 52 25 119 60 149
77 l54 32 -21 -29 c-36 -47 -45 -56 -113 -115 -112 -98 -142 -183 -109 -309
34 -131 105 -236 270 -406 174 -177 336 -285 515 -343 39 -13 109 -42 157 -66
95 -48 133 -86 245 -246 77 -110 148 -185 187 -198 30 -10 39 -8 86 20 101 59
186 98 319 144 73 25 147 56 163 68 17 11 57 62 89 112 93 145 98 150 243 220
72 35 156 82 186 106 30 23 105 79 166 124 146 110 210 198 233 321 18 94 13
297 -8 401 -23 109 -41 149 -89 191 -36 32 -37 33 -12 34 92 5 202 -63 286
-177 30 -40 59 -76 65 -79 14 -9 -27 72 -58 112 -13 18 -22 33 -19 33 14 0
255 -109 360 -163 101 -52 133 -75 219 -157 201 -191 296 -346 411 -672 112
-318 182 -501 214 -563 17 -33 31 -54 32 -47 0 7 -9 30 -19 50 -11 21 -46 116
-79 212 -148 429 -186 532 -237 635 -61 124 -128 221 -218 313 -53 56 -59 65
-44 73 18 10 57 79 57 100 0 6 -13 27 -30 45 -30 35 -31 53 -3 86 10 11 24 15
47 11 25 -4 37 1 59 23 24 24 27 33 22 67 -6 32 -3 42 14 58 12 11 21 24 21
29 0 18 28 10 58 -15 40 -33 110 -65 146 -65 78 0 184 67 173 109 -3 12 3 27
14 37 20 18 34 57 44 121 10 61 59 112 171 174 53 29 103 64 111 76 17 25 42
124 43 165 0 17 -8 33 -20 40 -26 16 -26 49 1 74 11 10 30 30 42 43 12 13 30
32 40 42 11 13 31 19 59 19 28 0 51 8 73 24 48 37 65 82 65 171 0 87 -3 82
135 201 33 28 67 67 76 85 9 19 36 75 60 124 39 81 54 101 157 200 115 111
188 198 223 267 33 65 59 138 49 138 -6 0 -10 -5 -10 -11 0 -32 -119 -174
-272 -324 -416 -409 -526 -500 -901 -744 -354 -231 -505 -334 -668 -456 -96
-72 -184 -137 -195 -145 -12 -8 -71 -49 -130 -91 -60 -42 -163 -109 -229 -149
-66 -40 -141 -88 -166 -106 l-47 -34 -63 32 c-54 28 -75 33 -133 33 l-69 1
-44 64 c-63 94 -56 132 30 160 46 15 60 39 52 93 -5 34 -2 48 14 68 29 38 35
72 17 107 -49 95 -150 78 -177 -28 -16 -63 -29 -74 -85 -75 -60 -1 -65 21 -25
99 17 32 31 64 31 71 0 40 -78 59 -134 34 -29 -14 -56 -65 -56 -107 0 -34 -38
-72 -73 -72 -18 0 -19 4 -13 70 4 38 13 88 19 111 13 45 13 45 289 179 l148
72 52 -45 c121 -101 458 -311 458 -285 0 5 -11 51 -24 101 -41 157 -67 314
-69 415 l-2 97 40 52 c24 31 46 50 54 47 70 -23 184 -46 271 -55 101 -9 205
-23 263 -34 38 -8 34 8 -6 23 -55 20 -118 120 -156 247 -27 90 -41 212 -27
224 11 9 211 121 391 219 296 161 387 244 525 480 193 330 262 423 444 602
168 165 200 221 134 235 -82 18 -203 -1 -421 -66 -72 -21 -133 -39 -136 -39
-3 0 35 23 84 51 50 28 148 89 219 136 192 126 561 401 552 411 -3 2 -18 -5
-33 -16 -64 -45 -268 -55 -443 -22 -58 11 -107 20 -110 20 -3 1 20 14 51 30
30 15 81 54 113 85 160 158 192 443 71 649 -23 40 -149 186 -167 194 -4 2 -23
16 -44 32 -80 64 -202 104 -314 103 -86 0 -153 -15 -341 -73 -180 -56 -285
-83 -384 -99 -123 -20 -160 -37 -199 -89 -47 -65 -68 -145 -68 -257 1 -134 52
-301 97 -318 17 -7 20 -33 5 -42 -11 -7 -65 96 -92 175 -16 49 -18 50 -12 15
3 -22 26 -80 50 -129 l44 -89 -16 -80 c-25 -120 -5 -249 30 -193 30 48 51 67
109 96 34 17 85 34 112 38 71 12 215 -3 331 -34 127 -33 122 -32 234 -49 105
-16 179 -13 287 10 64 14 79 15 135 2 115 -27 212 -40 283 -39 l70 1 -50 -14
c-27 -8 -60 -17 -72 -19 -13 -3 -27 -7 -33 -11 -24 -15 -278 -70 -365 -79 -27
-3 -111 -11 -185 -17 -74 -6 -137 -13 -139 -15 -14 -14 218 0 379 23 25 3 52
7 60 8 33 4 216 48 231 56 10 5 21 3 29 -4 7 -7 10 -7 7 -1 -5 9 92 44 198 72
11 3 -27 -29 -85 -71 -58 -41 -133 -96 -167 -121 -34 -25 -67 -46 -72 -46 -5
0 -11 -4 -13 -8 -3 -10 -281 -192 -291 -192 -4 0 -24 -12 -46 -27 -48 -35
-191 -103 -301 -143 -47 -17 -104 -40 -127 -51 -24 -10 -49 -19 -56 -19 -8 0
-60 30 -116 67 -77 50 -100 70 -95 82 8 20 11 44 13 98 l1 42 85 0 c88 0 106
2 240 28 130 25 325 99 382 145 8 7 13 1 16 -19 3 -23 4 -22 6 10 1 35 0 36
-19 25 -17 -11 -22 -10 -30 2 -8 13 -10 12 -10 -2 0 -13 -9 -18 -32 -19 -18 0
-45 -3 -60 -5 -43 -7 -156 21 -253 63 -84 37 -278 151 -376 223 -23 17 -45 28
-47 25 -3 -3 4 -12 16 -20 11 -9 27 -21 34 -28 7 -6 39 -29 70 -51 32 -21 55
-43 51 -49 -4 -6 -1 -7 7 -2 7 4 15 4 19 -1 3 -5 24 -19 46 -30 127 -69 175
-92 175 -87 0 3 9 -2 20 -12 11 -10 20 -15 20 -10 0 4 6 3 13 -3 7 -6 25 -13
41 -16 50 -9 41 -16 -15 -11 -54 5 -140 21 -169 32 -8 4 -18 7 -22 7 -3 1 -10
4 -14 9 -4 4 -16 7 -26 7 -27 0 -163 66 -230 112 -32 21 -58 35 -58 29 0 -15
150 -106 224 -136 133 -52 247 -75 357 -71 54 2 99 1 99 -3 0 -4 -33 -16 -72
-27 -61 -16 -105 -19 -273 -18 -137 0 -223 5 -272 16 -66 13 -72 13 -70 -1 4
-24 17 -42 27 -36 5 3 7 12 4 19 -4 12 5 12 58 1 35 -8 90 -16 123 -20 81 -8
277 -9 306 0 19 5 21 4 9 -4 -8 -6 -30 -11 -47 -11 -18 0 -33 -4 -33 -9 0 -10
-34 -8 -64 5 -13 5 -17 4 -12 -4 16 -26 -126 -37 -164 -14 -24 16 -24 16 -11
-1 15 -19 15 -19 -66 -3 -29 6 -63 25 -60 34 2 8 -6 12 -25 12 -6 0 -3 -10 8
-22 l19 -23 -22 19 c-13 11 -23 14 -23 8 0 -7 -5 -12 -11 -12 -5 0 -8 4 -4 9
3 6 -4 15 -15 21 -11 6 -19 16 -17 22 1 7 -4 12 -11 13 -7 0 -22 11 -32 25
-13 16 -20 20 -20 10 0 -8 -14 2 -31 24 -22 26 -34 34 -39 25 -6 -8 -13 -3
-24 17 -8 16 -15 25 -16 21 0 -19 35 -67 47 -63 7 3 22 -9 35 -27 12 -18 15
-26 6 -19 -13 10 -17 10 -22 -5 -4 -10 -4 -14 0 -10 8 8 44 -21 44 -36 0 -6
-9 -2 -20 8 -11 10 -20 14 -20 9 -1 -5 -12 5 -26 21 -15 18 -22 23 -18 11 5
-14 4 -17 -5 -12 -7 5 -11 16 -9 25 3 9 -8 43 -24 76 -16 33 -25 51 -21 40 3
-11 6 -33 6 -48 0 -21 2 -25 9 -15 6 9 7 5 3 -12 -5 -20 -4 -22 5 -10 10 13
11 12 6 -3 -4 -12 -2 -16 7 -11 7 4 7 1 -2 -7 -9 -10 -15 -11 -18 -2 -2 6 -21
35 -43 65 -21 29 -80 126 -131 216 -51 89 -96 162 -100 162 -11 0 141 -292
200 -380 70 -108 275 -314 395 -399 49 -34 132 -87 185 -117 53 -30 93 -54 90
-54 -31 0 -186 64 -325 134 -215 108 -362 219 -638 485 -60 58 -65 60 -32 20
38 -48 155 -159 305 -288 93 -79 196 -152 276 -194 85 -45 286 -137 297 -137
6 0 9 -3 5 -6 -7 -7 -118 15 -297 58 -80 19 -234 70 -257 84 -13 8 -23 12 -23
10 0 -7 -116 49 -135 64 -8 7 -15 10 -15 6 0 -14 -99 57 -105 75 -4 10 -11 19
-16 19 -6 0 -7 -4 -4 -10 3 -5 1 -10 -5 -10 -6 0 -13 7 -16 15 -4 8 -11 15
-17 15 -6 0 -31 17 -56 38 -25 20 -62 49 -81 64 -63 48 -95 80 -92 92 2 6 0 8
-4 4 -24 -25 -290 244 -420 424 -64 89 -146 279 -138 320 4 21 4 21 -4 3 -8
-18 -10 -18 -13 -3 -3 11 -9 15 -17 10 -11 -8 -27 -97 -73 -412 -15 -101 -84
-385 -116 -473 -37 -103 -103 -231 -177 -344 -98 -148 -113 -163 -76 -76 67
160 107 294 140 467 21 108 53 376 47 383 -6 5 -24 -99 -37 -212 -11 -97 -39
-249 -60 -330 -41 -151 -144 -416 -176 -453 -8 -10 -53 -67 -100 -129 -47 -61
-92 -117 -101 -125 -8 -7 5 28 30 77 71 139 134 284 153 350 9 33 19 65 22 70
4 6 7 15 9 20 1 6 9 39 19 75 9 36 18 79 20 95 2 17 7 37 10 45 9 24 25 111
30 165 4 36 2 46 -5 35 -6 -8 -11 -25 -11 -37 0 -26 -35 -204 -56 -288 -48
-187 -75 -258 -215 -550 l-24 -50 -3 45 c-7 118 -38 280 -87 449 -66 230 -102
364 -110 416 -3 22 -10 44 -16 50 -7 7 -9 -2 -4 -30 9 -57 63 -269 86 -340 11
-33 21 -69 24 -80 3 -11 14 -54 26 -95 27 -96 39 -153 45 -215 l5 -50 -21 33
c-11 18 -20 38 -20 45 0 7 -7 22 -15 33 -24 31 -17 39 13 13 l27 -24 -24 27
c-13 15 -27 25 -31 23 -4 -3 -18 16 -31 43 -33 66 -34 70 -7 42 12 -14 19 -19
14 -10 -6 8 -24 31 -42 50 -27 29 -144 238 -144 257 0 3 8 -1 18 -8 10 -8 9
-4 -5 11 -40 46 -50 90 -51 212 -1 124 6 191 18 183 5 -3 3 6 -3 20 -7 14 -14
25 -17 25 -14 0 -20 -321 -7 -460 6 -71 9 -93 23 -172 3 -18 7 -48 10 -66 6
-40 50 -175 70 -214 8 -16 12 -28 8 -28 -11 0 -94 72 -94 82 0 6 8 4 18 -3 15
-13 16 -12 3 3 -7 10 -16 16 -20 14 -12 -8 -100 121 -160 236 -34 64 -77 160
-96 215 -18 54 -34 91 -34 82 -3 -50 94 -275 175 -409 20 -33 23 -41 9 -30
-26 21 -132 157 -161 206 -43 73 -111 247 -132 339 -47 203 -54 340 -36 660 7
132 14 266 14 298 0 95 -17 64 -25 -45 -4 -57 -9 -130 -12 -163 -2 -33 -5 -88
-5 -123 l-1 -63 -78 -87 c-130 -146 -315 -310 -489 -433 -157 -112 -237 -160
-255 -153 -10 4 -14 2 -10 -7 6 -16 -27 -35 -235 -139 -235 -117 -521 -209
-720 -230 -148 -15 -164 -11 -62 16 205 54 518 198 709 326 56 38 105 74 109
80 8 13 7 13 -106 -63 -167 -111 -367 -207 -593 -285 -71 -24 -136 -44 -143
-44 -8 0 36 26 98 58 219 111 390 245 566 442 149 166 256 317 351 494 51 95
29 74 -28 -26 -29 -51 -65 -109 -79 -128 -15 -19 -42 -57 -61 -85 -19 -27 -52
-68 -73 -90 -21 -22 -38 -43 -38 -47 0 -5 -18 -27 -40 -50 -22 -24 -40 -40
-40 -37 0 3 22 47 50 99 27 51 48 95 45 98 -6 6 -100 -181 -98 -196 1 -12
-112 -136 -126 -138 -3 0 -31 -8 -61 -17 -30 -10 -80 -20 -110 -23 -30 -3 -61
-7 -67 -9 -7 -3 -13 0 -13 5 0 6 8 10 18 10 11 0 27 10 38 22 10 13 12 18 4
12 -19 -13 -89 -34 -138 -40 -20 -2 -45 -7 -56 -10 -14 -5 -16 -3 -10 7 6 11
5 12 -7 3 -22 -18 -121 -14 -143 5 -11 9 -16 10 -12 4 4 -7 5 -13 2 -13 -16 0
-196 50 -226 62 l-35 15 65 7 c36 5 88 10 115 12 28 1 63 6 79 9 26 5 28 4 16
-10 -7 -8 -9 -15 -4 -15 4 0 -5 -14 -22 -32 l-29 -32 42 33 c24 18 46 38 49
44 5 8 2 8 -7 0 -21 -21 -34 -15 -14 7 10 11 21 18 25 15 3 -2 31 2 61 10 30
9 65 17 79 20 43 8 264 82 297 99 18 9 35 21 38 27 4 6 -10 2 -32 -9 -76 -39
-367 -123 -472 -136 -56 -7 -52 -4 34 29 124 46 335 167 407 233 l28 25 41
-18 c22 -11 63 -40 90 -65 38 -35 50 -42 55 -30 9 23 5 172 -6 210 -9 30 -6
35 36 77 123 124 254 385 280 559 7 49 -2 58 -12 13 -18 -79 -23 -97 -32 -124
-10 -30 -36 -97 -67 -169 -13 -31 -19 -36 -27 -25 -8 11 -9 10 -4 -4 6 -18
-18 -68 -68 -141 -27 -40 -35 -42 -15 -4 40 74 54 307 24 402 -20 64 -55 123
-99 165 -33 32 -40 35 -128 41 -181 14 -318 41 -423 82 -219 87 -379 108 -530
69 -44 -11 -90 -23 -102 -27 -61 -17 -433 314 -563 501 l-52 76 93 -47 c111
-55 259 -111 405 -153 124 -36 513 -121 546 -120 13 0 -51 18 -142 39 -275 63
-441 107 -551 146 -109 39 -160 65 -74 39 132 -40 293 -57 585 -61 236 -3 312
-8 440 -27 191 -29 205 -28 76 8 -54 15 -69 26 -171 128 -240 241 -402 487
-540 820 -15 37 -30 65 -32 63 -6 -5 66 -186 81 -205 9 -11 7 -13 -13 -6 -16
5 -21 4 -17 -4 4 -6 14 -11 21 -11 8 0 28 -27 45 -60 37 -73 38 -84 4 -45 -14
17 -22 24 -18 16 5 -10 1 -11 -15 -6 -11 3 -21 4 -21 1 0 -9 77 -45 84 -39 3
3 9 -3 13 -13 3 -10 17 -36 31 -56 13 -20 21 -42 17 -48 -3 -6 -2 -9 3 -8 5 2
43 -42 83 -97 105 -145 150 -197 268 -315 58 -58 99 -100 91 -94 -8 6 -44 12
-80 13 -45 1 -73 7 -90 20 -33 23 -134 142 -185 215 -22 32 -46 64 -52 71 -31
33 -199 325 -187 325 4 0 0 8 -8 18 -58 67 -198 505 -213 667 l-6 70 22 -35
c12 -19 36 -57 53 -85 53 -86 185 -245 305 -369 172 -176 481 -438 481 -408 0
6 -6 12 -13 15 -61 23 -460 395 -594 553 -117 138 -273 373 -232 349 7 -5 59
-39 114 -75 154 -103 354 -224 478 -289 216 -114 681 -297 802 -315 22 -4 -18
13 -90 37 -212 71 -526 204 -672 283 -170 92 -194 106 -191 110 2 2 26 -3 53
-12 28 -8 157 -39 287 -70 293 -68 388 -104 492 -186 55 -44 71 -37 42 20 -15
29 -40 160 -51 267 -4 33 -8 67 -10 75 -3 8 -9 81 -15 162 -13 192 -2 347 46
648 26 160 49 268 58 278 3 3 7 -30 7 -74 1 -43 3 -89 4 -101 8 -74 18 -141
37 -233 11 -58 21 -112 22 -120 1 -9 5 -20 8 -26 4 -6 9 -23 12 -39 6 -31 53
-189 66 -220 5 -11 14 -38 20 -60 7 -22 18 -55 27 -73 8 -18 12 -40 9 -48 -3
-8 -2 -13 3 -10 5 3 12 -6 15 -22 10 -41 28 -82 35 -82 4 0 -14 66 -41 148
-168 510 -215 787 -188 1102 7 82 17 150 22 150 4 0 8 -7 8 -15 0 -34 66 -217
111 -306 26 -53 84 -150 128 -215 81 -121 281 -378 288 -370 2 2 -45 71 -105
152 -120 165 -203 286 -221 324 -7 14 50 -38 127 -115 151 -152 407 -403 488
-478 l51 -47 1 137 c1 245 30 436 101 650 54 167 150 367 167 350 2 -2 -3 -26
-11 -53 -37 -118 -55 -272 -54 -452 1 -98 4 -188 9 -202 4 -14 5 25 2 85 -9
216 32 482 108 695 36 101 79 196 79 175 0 -5 -4 -28 -8 -50 -5 -22 -12 -65
-16 -95 -3 -30 -10 -81 -16 -113 -5 -31 -7 -62 -4 -67 3 -5 -1 -26 -10 -46
-19 -45 -19 -55 0 -30 14 18 15 16 16 -30 0 -48 37 -277 59 -364 6 -25 12 -55
13 -67 4 -41 14 -33 27 22 7 30 17 52 22 49 4 -3 8 7 8 21 0 14 5 47 12 73 9
37 13 42 19 26 5 -13 8 -6 9 26 2 38 3 41 10 20 7 -21 8 -19 9 16 1 47 70 223
161 409 69 141 122 232 199 335 30 41 70 102 88 135 l33 60 0 -90 c0 -110 -21
-245 -61 -390 -55 -201 -170 -579 -191 -628 -11 -26 -19 -50 -16 -53 21 -21
233 637 273 848 15 80 22 358 10 378 -3 6 -2 10 3 10 4 0 16 -35 26 -77 10
-43 30 -132 46 -198 52 -223 55 -252 55 -567 0 -163 3 -288 7 -277 4 11 10
147 13 302 5 271 4 288 -19 403 -13 65 -27 128 -32 139 -4 11 -4 17 0 14 10
-10 204 -403 228 -464 48 -121 159 -503 172 -595 5 -33 -22 -177 -43 -234 -6
-14 -7 -26 -3 -26 18 0 81 235 123 460 23 122 24 292 2 409 -8 40 -12 75 -10
77 2 3 26 -39 52 -93 154 -317 202 -487 207 -740 l3 -132 -37 -38 c-41 -43
-88 -110 -88 -127 0 -6 14 7 32 29 120 149 263 270 533 453 83 56 165 115 184
132 19 17 36 29 38 27 5 -6 -19 -71 -33 -88 -8 -8 -14 -20 -14 -25 0 -5 5 -2
10 6 7 10 10 11 10 2 0 -7 -7 -15 -15 -18 -8 -4 -15 -13 -15 -21 0 -8 -5 -11
-12 -7 -6 4 -8 3 -5 -3 4 -6 -43 -71 -105 -144 -61 -74 -129 -156 -151 -184
l-40 -50 49 50 c55 56 117 127 230 260 177 209 245 320 301 489 l33 101 -5
-145 c-3 -87 -11 -169 -21 -205 -43 -163 -120 -411 -154 -500 -54 -143 -55
-149 -10 -60 41 80 129 338 177 515 19 70 26 122 27 197 0 57 4 103 7 103 9 0
48 -263 64 -435 15 -154 20 -427 10 -510 -2 -22 -7 -65 -10 -95 -4 -30 -11
-73 -17 -95 -7 -22 -10 -46 -9 -53 4 -26 -75 -301 -99 -344 -6 -10 -10 -22
-10 -28 0 -5 -12 -35 -26 -66 -14 -31 -23 -58 -21 -61 3 -2 34 17 69 42 81 61
186 113 318 158 193 67 573 188 576 184 10 -10 -434 -317 -457 -317 -5 0 -9
-5 -9 -11 0 -30 364 211 590 391 91 72 200 164 244 203 91 82 92 77 11 -85
-61 -124 -143 -253 -222 -350 -29 -38 -52 -68 -49 -68 11 0 84 82 148 169 40
53 79 101 88 108 8 7 12 13 7 13 -4 0 2 18 13 41 12 23 24 38 28 35 3 -4 0
-12 -6 -18 -7 -7 -12 -22 -12 -34 0 -13 -5 -26 -10 -29 -6 -4 -8 -11 -5 -16 8
-11 -35 -240 -44 -235 -3 2 -7 -11 -8 -29 -1 -30 -44 -169 -63 -206 -4 -8 -20
-47 -36 -85 -79 -198 -156 -332 -278 -484 -129 -159 -219 -245 -283 -271 -13
-5 -23 -14 -23 -20 0 -8 4 -8 13 -1 6 5 53 20 102 33 83 22 109 24 345 24 176
0 277 -4 325 -14 39 -7 117 -19 175 -26 59 -7 86 -13 62 -14 -23 0 -131 -15
-239 -32 -108 -16 -237 -34 -287 -39 l-91 -9 115 4 c63 2 192 15 285 29 94 13
224 27 290 31 97 5 296 37 440 71 19 4 19 3 -2 -11 -12 -9 -49 -39 -83 -66
-86 -69 -176 -120 -320 -182 -69 -29 -134 -57 -144 -60 -10 -4 -17 -10 -14
-12 4 -5 113 35 195 71 17 8 33 14 36 14 2 0 21 7 41 15 20 8 38 15 41 15 3 0
11 4 18 10 6 5 47 35 91 65 l78 56 -33 -43 c-42 -54 -284 -297 -324 -326 -38
-27 -12 -29 33 -2 57 35 201 181 329 334 141 168 153 187 103 161 -18 -9 -82
-26 -144 -37 -148 -27 -460 -29 -586 -5 -144 28 -414 42 -546 29 -62 -7 -125
-17 -140 -22 -15 -6 -28 -9 -29 -8 -2 2 33 41 77 88 94 100 197 235 261 340
111 183 241 529 276 735 12 66 36 174 55 240 76 272 76 275 -21 177 -43 -42
-135 -123 -204 -178 l-126 -101 -134 -43 c-637 -205 -725 -239 -826 -319 l-52
-41 30 68 c76 168 128 358 154 562 13 98 13 453 1 535 -3 17 -7 66 -11 110
-14 181 -72 458 -109 524 -13 23 -14 21 -25 -45 -19 -112 -57 -175 -173 -291
-115 -115 -140 -134 -318 -253 -155 -103 -263 -185 -315 -239 -21 -23 -42 -41
-45 -41 -3 0 -6 59 -7 131 -2 186 -18 267 -93 469 -58 157 -231 493 -243 473
-3 -4 3 -39 13 -78 10 -38 20 -90 24 -115 32 -234 31 -281 -10 -484 -24 -119
-34 -150 -34 -107 0 38 -68 308 -111 444 -42 130 -226 521 -289 612 -17 24
-30 48 -30 53 0 22 -51 181 -74 232 l-25 55 0 -65z m1639 -1064 c-5 -15 -14
-25 -19 -22 -5 3 -12 -6 -15 -20 -10 -38 -36 -75 -49 -67 -5 3 -7 1 -4 -5 4
-5 -5 -29 -20 -51 -30 -46 -42 -48 -20 -4 8 15 18 42 21 60 5 19 25 48 50 71
24 22 46 48 50 57 3 10 9 16 12 13 2 -3 0 -17 -6 -32z m-5088 -2635 c-2 -13
-1 -13 7 -2 7 11 30 -2 110 -63 56 -42 106 -76 111 -76 23 0 7 -21 -34 -45
-24 -14 -50 -32 -56 -40 -7 -8 -16 -15 -20 -15 -12 0 -98 92 -137 147 -32 45
-203 319 -203 326 0 2 51 -46 113 -107 65 -64 111 -116 109 -125z m4253 -781
c42 -133 125 -266 269 -429 186 -213 550 -497 750 -586 l86 -38 0 -61 c0 -97
25 -228 80 -411 49 -169 58 -211 41 -201 -5 3 -18 -38 -31 -92 -31 -139 -54
-221 -125 -452 -78 -251 -93 -293 -94 -263 -1 35 -37 120 -65 158 -16 20 -59
51 -105 75 -61 32 -83 49 -95 75 -23 48 -20 57 25 85 55 34 193 178 219 229
28 55 19 52 -19 -7 -46 -72 -214 -232 -243 -232 -4 0 -8 8 -8 18 0 10 -8 34
-18 54 l-18 35 32 18 c33 17 152 133 194 188 23 29 43 28 34 -1 -5 -14 -2 -13
11 3 63 76 113 219 122 350 6 99 -1 116 -10 20 -3 -33 -8 -76 -12 -95 -10 -56
-58 -190 -67 -190 -13 0 -10 17 18 81 14 34 23 63 21 65 -2 3 -14 -20 -27 -51
-12 -30 -26 -55 -31 -55 -12 0 -12 2 6 36 21 42 65 213 65 252 0 46 -55 213
-97 293 -87 168 -285 283 -525 304 -111 10 -131 19 -156 69 -25 49 -27 94 -10
178 11 53 10 62 -9 100 -11 24 -43 68 -69 99 -27 30 -77 90 -112 133 -35 43
-66 75 -69 72 -3 -3 28 -63 70 -133 41 -70 78 -143 82 -160 5 -26 -2 -51 -34
-121 -23 -49 -41 -100 -41 -113 1 -31 35 -108 62 -136 l20 -21 -28 -15 c-16
-9 -50 -37 -75 -64 -159 -168 -228 -306 -308 -613 -47 -185 -61 -328 -29 -318
5 2 30 -17 57 -42 28 -26 94 -68 155 -99 60 -30 110 -60 113 -67 3 -7 20 -22
39 -34 43 -24 97 -26 218 -4 66 11 96 12 119 5 42 -15 83 -14 117 4 21 11 31
12 36 3 9 -15 -22 -37 -73 -51 -24 -6 -43 -15 -43 -19 0 -11 3 -11 61 12 28
12 53 19 54 18 1 -2 5 -24 7 -49 5 -46 5 -46 -31 -57 l-36 -11 37 5 c34 4 37
3 48 -30 6 -19 45 -72 86 -117 104 -116 118 -155 111 -319 -8 -179 -20 -208
-113 -271 -102 -68 -372 -222 -469 -267 -44 -20 -127 -61 -185 -91 -117 -61
-465 -221 -550 -254 -71 -27 -174 -28 -255 -3 -244 76 -686 237 -820 299 -129
59 -267 134 -348 189 -97 66 -237 188 -248 215 -28 73 -18 296 17 395 7 21 32
65 56 98 41 58 43 64 48 153 6 116 10 122 58 98 20 -10 53 -22 72 -26 19 -3
43 -9 54 -12 11 -3 16 -1 12 5 -3 5 -23 12 -43 16 -21 3 -58 15 -82 26 l-44
20 22 24 22 24 60 -19 c34 -11 81 -19 105 -19 26 0 59 -9 82 -21 l37 -21 -83
5 c-46 2 -77 0 -69 -4 43 -25 222 -9 286 25 14 8 47 19 74 25 56 13 162 59
155 67 -4 3 -24 -4 -45 -14 -46 -24 -152 -56 -160 -49 -7 8 23 22 96 47 87 29
155 64 221 113 50 38 53 39 37 13 -10 -15 -16 -30 -13 -34 9 -8 -79 -69 -151
-105 -35 -17 -63 -35 -63 -39 0 -14 133 58 190 103 69 53 80 64 57 56 -16 -6
-16 -4 -2 23 47 90 59 289 25 422 -61 245 -213 488 -369 590 -40 26 -77 48
-81 48 -4 0 6 26 22 57 35 70 32 107 -18 203 -64 125 -63 147 9 260 l42 64 2
-34 c16 -224 50 -412 97 -525 70 -171 159 -301 311 -455 85 -87 225 -202 225
-187 0 3 -15 38 -34 79 -39 85 -86 228 -86 261 0 15 12 4 46 -43 141 -193 237
-362 237 -418 0 -15 -3 -35 -8 -46 -31 -70 135 110 286 309 267 354 368 592
439 1030 11 72 27 171 35 221 8 50 15 109 15 130 0 48 12 36 35 -36z m-1688
-302 c-128 -119 -131 -126 -123 -307 6 -133 5 -149 -13 -177 -18 -30 -21 -31
-114 -37 -107 -7 -227 -45 -299 -95 -93 -65 -176 -171 -207 -265 -33 -98 -83
-362 -91 -477 -9 -121 7 -191 62 -275 39 -59 146 -175 161 -175 6 0 -19 31
-55 68 -36 37 -80 90 -97 116 -34 54 -75 169 -68 189 3 6 6 3 7 -8 1 -17 29
-79 30 -65 0 3 -7 30 -15 60 -8 30 -14 82 -14 115 l1 60 19 -75 c11 -41 24
-79 29 -84 13 -13 13 -6 -5 43 -8 23 -10 39 -5 36 6 -3 10 0 10 9 0 8 -4 16
-10 18 -5 2 -12 32 -15 68 l-6 65 25 -94 c14 -51 23 -98 20 -102 -13 -22 23
-94 75 -148 31 -32 64 -69 74 -84 9 -14 44 -40 77 -58 33 -17 57 -36 54 -41
-3 -5 -16 -2 -30 6 -13 9 -36 23 -51 32 -28 16 -28 16 -7 -2 11 -11 31 -26 45
-36 17 -11 21 -19 13 -27 -8 -8 -22 -3 -55 19 l-44 31 41 -38 c37 -35 39 -40
27 -63 -7 -14 -13 -44 -13 -68 0 -63 -23 -107 -88 -171 -65 -62 -116 -145
-127 -206 l-8 -40 -29 62 c-80 169 -169 475 -248 847 -30 140 -31 154 -19 215
11 58 42 158 94 300 25 70 104 227 123 245 9 9 71 48 136 87 265 156 442 293
661 513 154 156 160 161 163 132 3 -27 -7 -40 -91 -118z m-1395 -40 c32 -6 46
-14 41 -21 -4 -7 2 -5 12 3 10 9 16 10 14 3 -6 -18 -172 -123 -285 -180 -147
-76 -335 -133 -436 -133 -37 0 -39 1 -27 18 13 16 13 16 -6 0 -13 -10 -30 -14
-47 -11 -16 3 -28 1 -28 -3 0 -11 62 -54 77 -54 6 0 13 -4 15 -8 4 -10 190
-67 231 -71 5 -1 6 -4 3 -9 -4 -7 346 -7 389 0 16 2 20 -2 18 -22 -2 -22 -2
-23 6 -5 5 11 7 23 4 28 -2 4 5 7 16 7 10 0 26 3 35 6 11 4 16 0 16 -14 0 -23
-20 -41 -21 -20 0 9 -2 8 -6 -2 -7 -20 -44 -60 -55 -60 -5 0 -19 -9 -31 -21
-47 -44 -237 -154 -237 -136 0 12 30 176 36 193 4 16 4 16 -5 4 -13 -21 -44
-187 -36 -200 9 -14 -55 -44 -67 -32 -6 6 -73 25 -149 43 -76 18 -136 36 -134
40 6 9 -136 78 -474 231 -214 96 -239 110 -296 165 l-50 49 90 -3 c49 -1 195
-7 323 -12 305 -13 431 -15 439 -7 4 3 -8 6 -27 6 -29 0 -31 2 -19 18 13 16
13 16 -6 0 -17 -14 -36 -16 -105 -13 -47 3 -165 7 -264 9 -98 3 -180 7 -182 9
-2 2 21 8 51 14 30 5 55 6 55 1 0 -5 10 -3 23 4 12 6 29 12 37 13 8 1 26 5 39
9 18 6 22 5 16 -5 -5 -8 1 -6 12 4 11 9 25 17 32 17 16 0 108 28 144 44 18 9
43 10 75 5 126 -21 284 -3 424 47 182 65 228 72 320 52z m4458 -403 c19 -22
29 -35 21 -28 -7 6 -19 9 -25 7 -19 -7 -58 40 -50 60 4 10 9 14 13 9 3 -4 22
-26 41 -48z m-5650 -15 c41 -17 79 -35 85 -41 5 -5 14 -9 21 -9 13 0 94 -36
269 -120 55 -26 110 -51 123 -55 49 -15 11 -15 -46 0 -63 16 -186 38 -281 50
-29 4 -61 13 -70 21 -9 7 -25 21 -36 29 -12 9 -2 7 23 -5 24 -12 46 -19 48
-17 5 4 -82 57 -93 57 -10 0 -119 90 -148 121 l-30 33 30 -17 c17 -9 64 -30
105 -47z m5645 -33 c22 -8 65 -18 94 -22 l54 -7 -5 -69 c-3 -39 -8 -72 -11
-76 -9 -8 -128 96 -206 180 l-24 26 29 -8 c16 -5 47 -16 69 -24z m-4360 3
c-10 -11 -21 -17 -24 -14 -3 3 3 12 13 20 28 20 32 17 11 -6z m5728 -87 c15
-9 -20 -52 -162 -198 -199 -203 -236 -254 -456 -624 -88 -147 -164 -237 -258
-304 -66 -47 -307 -186 -551 -317 -33 -17 -85 -48 -115 -68 -90 -57 -153 -93
-157 -89 -5 5 65 240 74 248 4 4 61 39 127 78 80 47 160 84 240 111 163 56
311 140 413 234 74 68 67 80 -11 18 -98 -78 -209 -146 -305 -188 -94 -41 -118
-43 -66 -6 145 105 255 319 256 497 0 95 -15 112 -92 106 -23 -2 -22 0 11 23
20 13 79 47 131 75 87 47 101 51 164 52 69 1 69 1 30 12 l-39 12 27 13 c25 11
165 64 241 90 17 6 55 20 85 31 30 12 57 21 59 21 3 0 -9 -15 -25 -32 -30 -32
-46 -56 -96 -148 -79 -143 -92 -162 -102 -153 -4 4 -4 0 -1 -8 6 -17 -32 -72
-45 -64 -5 3 -12 0 -16 -6 -4 -8 -3 -9 4 -5 27 16 9 -12 -40 -63 -29 -31 -43
-47 -30 -37 13 12 22 14 22 7 0 -14 77 71 117 131 17 23 46 72 65 108 20 36
48 88 63 115 42 76 102 153 133 169 15 8 54 19 86 25 33 6 62 13 64 16 12 11
-6 12 -68 4 -77 -11 -276 -77 -450 -150 -69 -29 -141 -52 -160 -52 -32 -1
-140 41 -140 53 0 10 241 99 380 141 52 15 133 39 180 54 183 56 378 89 413
68z m-3834 -125 l-9 -33 5 38 c2 22 0 35 -6 32 -5 -4 -9 0 -9 7 0 7 -3 24 -6
38 -4 18 0 15 14 -12 15 -29 18 -44 11 -70z m-1555 -35 c-88 -176 -154 -384
-154 -480 0 -26 7 -79 16 -118 8 -38 17 -83 20 -100 4 -28 4 -29 -6 -6 -6 13
-17 38 -24 55 -13 28 -29 73 -31 86 0 3 -3 10 -6 15 -13 20 -20 72 -21 148 0
43 -4 80 -9 83 -13 8 -14 -117 -2 -191 2 -16 4 -34 4 -40 0 -5 0 -43 -1 -83
-1 -41 1 -76 4 -80 3 -3 0 -12 -7 -20 -7 -10 -8 -13 -1 -9 7 4 14 -2 17 -14
11 -40 -18 -13 -49 47 -36 70 -36 70 -75 254 -16 80 -32 153 -36 164 -4 14 -2
16 8 10 12 -6 12 -5 1 8 -14 17 -19 35 -32 111 -5 26 -12 57 -15 67 -5 17 0
21 37 27 24 4 46 6 51 5 4 -1 7 2 7 7 0 5 24 17 53 26 28 10 61 23 72 29 11 6
47 22 80 36 33 13 78 34 100 46 22 12 43 22 46 23 4 1 -18 -47 -47 -106z
m-1454 77 c173 -26 630 -127 630 -140 0 -3 -39 -20 -86 -39 l-85 -33 -67 30
c-125 56 -309 92 -400 76 l-47 -8 77 -7 c42 -3 92 -9 111 -13 34 -6 35 -8 30
-44 -6 -48 34 -115 175 -291 110 -137 129 -158 177 -187 l30 -18 -25 29 c-14
16 -34 38 -45 48 -11 10 -20 23 -20 28 0 5 -10 16 -22 24 -13 9 -23 21 -23 26
0 5 -20 31 -45 57 -25 26 -45 52 -45 58 0 6 -9 19 -20 29 -21 19 -28 41 -8 29
7 -4 8 -3 4 5 -4 6 -11 9 -16 6 -21 -13 -105 132 -95 165 9 28 44 26 151 -10
49 -16 90 -30 92 -30 1 0 2 -4 2 -10 0 -5 -9 -10 -21 -10 -11 0 -17 -4 -14
-10 3 -5 18 -7 34 -4 31 7 91 -17 294 -116 l129 -63 -38 -13 c-70 -24 -100
-94 -90 -203 12 -131 127 -301 281 -416 22 -17 42 -32 45 -36 3 -3 32 -24 64
-47 67 -48 67 -54 -2 -16 -109 61 -201 135 -337 273 -80 80 -145 141 -145 135
0 -5 43 -56 96 -113 227 -244 353 -328 618 -416 90 -30 133 -49 138 -62 47
-117 74 -193 67 -193 -4 0 -50 19 -101 41 -51 23 -186 81 -301 130 -114 48
-228 100 -254 115 -82 48 -134 106 -234 259 -185 285 -239 354 -389 506 -143
144 -222 212 -372 322 -79 59 -107 103 -93 147 5 17 15 20 68 20 34 0 91 -5
127 -10z m3037 -93 c-2 -20 1 -33 6 -30 5 3 7 14 4 24 -3 11 -1 17 4 13 5 -3
9 -11 9 -19 0 -7 4 -15 8 -17 11 -4 80 -123 83 -140 5 -39 -4 -36 -33 8 -18
27 -41 58 -51 69 -42 46 -57 80 -50 119 8 48 24 26 20 -27z m2238 -26 c6 -1
24 -6 40 -11 l31 -10 0 -250 c0 -137 -2 -248 -4 -246 -2 2 -9 26 -17 52 -7 27
-23 81 -35 119 -11 39 -23 81 -25 95 -2 14 -8 45 -14 70 -5 25 -13 80 -16 123
-6 74 -5 78 12 69 10 -6 23 -10 28 -11z m266 -71 c11 0 19 -4 19 -9 0 -39
-100 -387 -141 -488 -28 -70 -51 -129 -52 -130 -1 -1 -2 150 -2 336 l0 337 79
-23 c43 -13 87 -23 97 -23z m-4501 -6 c0 -30 -3 -35 -17 -29 -10 4 -31 11 -48
17 -16 5 -37 12 -45 15 -8 3 7 11 35 18 75 19 75 19 75 -21z m-76 -35 c48 -17
86 -32 86 -32 0 -1 11 -60 25 -132 14 -71 25 -135 25 -142 0 -7 -36 12 -79 42
-75 50 -261 148 -431 225 l-75 34 115 8 c63 4 135 11 160 17 71 14 84 13 174
-20z m4834 -8 l175 -27 -54 -28 c-134 -70 -228 -132 -407 -271 -26 -19 -26
-19 -18 0 4 11 19 67 33 125 14 58 29 113 34 123 6 9 32 28 59 42 81 41 79 61
-4 25 -48 -20 -52 -18 -40 28 5 17 11 21 26 16 11 -3 99 -18 196 -33z m-2587
-136 c21 -41 24 -52 10 -35 -11 14 -21 30 -21 36 0 6 -9 21 -20 34 -11 13 -20
30 -20 39 0 14 2 14 11 1 5 -8 23 -42 40 -75z m2633 -71 c38 -38 5 -231 -61
-356 -44 -83 -157 -205 -220 -237 -24 -12 -43 -25 -43 -30 0 -5 -12 -12 -27
-16 -16 -3 -50 -19 -78 -35 -27 -16 -68 -39 -90 -51 -22 -12 -54 -33 -72 -46
l-31 -24 25 78 c23 74 45 107 116 171 10 10 27 32 38 50 14 22 29 32 47 33 22
1 23 2 6 6 l-22 4 22 42 c17 35 21 58 20 141 l-1 98 81 59 c44 32 94 68 109
80 60 46 152 63 181 33z m-4860 -51 c43 -27 89 -54 101 -60 17 -10 28 -37 50
-117 21 -82 37 -118 69 -163 24 -32 45 -70 49 -84 10 -38 69 -111 115 -139 38
-24 42 -31 69 -126 l29 -102 -50 15 c-98 29 -146 51 -223 103 -311 210 -458
394 -454 567 2 106 37 153 114 153 45 0 64 -7 131 -47z m283 -215 c-3 -8 -6
-5 -6 6 -1 11 2 17 5 13 3 -3 4 -12 1 -19z m4190 -38 c-4 -33 -17 -81 -30
-106 -24 -46 -127 -183 -139 -183 -13 -1 10 58 36 92 23 30 70 124 109 220 9
20 19 37 23 37 4 0 4 -27 1 -60z m-4130 -72 c40 -81 82 -213 70 -224 -7 -7
-95 73 -109 100 -10 19 -10 20 5 7 21 -17 21 -16 -3 54 -20 57 -27 145 -12
145 4 0 26 -37 49 -82z m-27 -631 c19 -7 89 -35 154 -62 116 -49 119 -51 139
-95 11 -25 28 -57 38 -72 l19 -26 -131 -76 c-71 -42 -133 -76 -137 -76 -3 0 9
12 28 28 67 54 110 95 106 100 -3 2 -21 -8 -39 -24 -59 -50 -258 -199 -306
-229 -8 -4 -6 5 4 25 9 18 33 76 52 129 20 53 44 120 55 149 21 55 18 87 -3
36 -6 -16 -17 -44 -25 -62 -8 -18 -14 -39 -14 -47 0 -8 -5 -15 -11 -15 -6 0
-9 9 -6 23 3 12 9 49 13 82 3 33 9 64 12 69 3 5 6 28 8 50 1 23 3 43 4 46 1 3
1 17 0 33 -1 15 0 27 2 27 2 0 19 -6 38 -13z m4011 -34 c-3 -21 -6 -30 -9 -20
-2 9 -8 17 -13 17 -6 0 -6 -7 0 -19 6 -10 7 -22 3 -26 -4 -3 -1 -5 7 -3 14 3
19 -12 54 -157 2 -5 15 -34 30 -62 14 -29 23 -53 20 -53 -4 0 2 -7 13 -15 25
-19 11 -19 -27 0 -18 10 -27 21 -23 28 4 7 3 9 -1 4 -5 -4 -48 34 -96 84 -59
62 -89 87 -94 78 -5 -7 -4 -10 2 -6 6 4 22 -10 35 -31 43 -64 116 -139 173
-177 30 -20 55 -38 55 -39 0 -10 -162 52 -253 98 -57 28 -103 46 -100 40 2 -7
12 -15 21 -18 9 -3 43 -21 74 -40 31 -19 73 -39 92 -46 20 -6 39 -16 43 -22 4
-8 0 -9 -11 -5 -10 4 -30 7 -44 7 -21 0 -24 2 -12 10 10 7 0 8 -32 4 -33 -5
-48 -3 -48 5 0 6 -17 11 -41 11 -46 0 -132 19 -126 29 16 29 117 243 117 248
0 3 8 12 18 19 14 11 21 9 42 -9 23 -21 24 -21 7 -1 -17 20 -16 21 9 32 14 7
30 10 35 6 5 -3 8 -1 7 5 -3 9 58 59 72 61 4 0 4 -17 1 -37z m-425 -560 c2
-99 4 -121 23 -215 6 -29 13 -69 16 -88 2 -19 11 -53 19 -75 39 -109 -40 -1
-95 130 -4 11 -16 40 -27 65 -10 25 -22 53 -25 63 -4 9 -11 17 -16 17 -23 0
90 -258 142 -323 l32 -41 -30 21 c-33 23 -149 97 -208 132 -22 13 -34 27 -30
34 3 7 3 9 -1 5 -11 -9 -175 97 -176 114 0 3 12 13 28 20 70 36 264 162 303
198 24 21 44 39 44 40 0 0 1 -44 1 -97z m-2948 -6 c12 -13 20 -26 17 -29 -3
-2 1 -5 8 -5 7 0 53 -29 102 -64 50 -36 111 -76 138 -89 26 -13 44 -27 39 -32
-8 -8 -243 -125 -357 -178 -38 -18 -74 -35 -79 -38 -5 -3 -6 1 -1 9 5 8 38 61
74 119 35 58 74 128 87 155 53 119 37 128 -20 10 -20 -41 -39 -75 -42 -75 -3
0 -2 16 2 35 10 53 11 157 2 183 -10 28 3 28 30 -1z m-1928 -258 c0 -6 -4 -7
-10 -4 -5 3 -10 11 -10 16 0 6 5 7 10 4 6 -3 10 -11 10 -16z m6361 -22 c-10
-9 -11 -8 -5 6 3 10 9 15 12 12 3 -3 0 -11 -7 -18z m-96 -145 c-8 -8 -25 10
-19 20 4 6 9 5 15 -3 4 -7 6 -15 4 -17z m-3292 -92 l252 -88 -4 -174 c-2 -95
-5 -175 -7 -177 -11 -12 -16 19 -24 145 l-8 139 1 -133 c1 -72 -1 -132 -4
-132 -4 0 -18 9 -33 21 -25 20 -26 23 -27 142 -1 114 -2 118 -11 62 -5 -33 -7
-86 -4 -118 6 -61 3 -63 -36 -29 -13 11 -18 31 -19 71 -1 31 -5 81 -9 111 -7
43 -8 31 -5 -54 l4 -109 -29 28 c-29 28 -30 32 -30 117 0 52 -4 88 -10 88 -6
0 -8 -33 -6 -86 l4 -86 -29 28 c-28 26 -29 32 -29 113 -1 67 -3 82 -12 67 -6
-11 -8 -41 -5 -72 3 -30 4 -54 2 -54 -2 0 -16 11 -30 25 -20 21 -25 36 -25 76
0 28 -4 48 -9 45 -5 -4 -8 -18 -6 -34 4 -38 -4 -46 -26 -26 -11 10 -19 32 -20
53 -1 22 -3 28 -6 16 -3 -11 -10 -23 -17 -27 -20 -14 255 -278 364 -349 l97
-64 6 -50 c4 -27 7 -162 7 -300 0 -193 -4 -265 -16 -315 -9 -36 -19 -130 -23
-210 -4 -80 -13 -162 -20 -184 -8 -25 -11 -82 -9 -162 2 -68 0 -124 -3 -124
-4 0 -29 18 -57 40 -47 38 -50 43 -57 99 -13 116 -73 159 -117 85 -21 -35 -21
-35 -72 -29 -28 4 -53 9 -55 11 -2 2 -4 18 -5 36 -1 28 -8 36 -43 56 -25 14
-45 32 -47 45 -3 12 -7 34 -10 48 -4 19 -20 33 -60 53 -52 27 -55 27 -86 11
-66 -34 -79 35 -28 147 33 70 76 119 133 148 70 36 129 107 149 179 27 98 50
441 27 415 -4 -5 -13 -41 -20 -81 -15 -96 -66 -235 -105 -286 -21 -27 -63 -60
-120 -93 -81 -46 -164 -119 -191 -168 -13 -24 -45 -11 -45 19 0 12 5 36 11 54
14 40 -7 77 -51 88 -17 5 -30 13 -30 18 1 6 82 92 180 191 197 199 223 238
241 357 12 83 11 351 -1 405 -11 45 -6 67 11 56 6 -3 124 -46 262 -94z m957
10 c-10 -41 -21 -91 -24 -110 -43 -272 -31 -313 134 -461 46 -41 118 -110 161
-153 l77 -79 -28 -23 c-15 -13 -37 -46 -49 -74 -20 -46 -20 -52 -6 -86 8 -20
15 -53 15 -74 0 -21 7 -54 15 -75 16 -36 13 -75 -6 -75 -5 0 -20 23 -34 50
-70 138 -134 213 -211 249 -27 13 -60 33 -73 44 -56 52 -126 252 -133 382 -2
31 -6 59 -9 61 -13 7 -31 -229 -27 -334 6 -133 19 -163 103 -230 82 -67 109
-102 150 -204 45 -111 45 -109 10 -114 -19 -2 -43 -17 -67 -43 -32 -34 -38
-47 -38 -83 0 -24 4 -57 9 -75 11 -39 -14 -85 -60 -108 -33 -17 -57 -19 -154
-9 -52 5 -64 3 -88 -16 -30 -24 -35 -51 -12 -70 24 -20 2 -45 -61 -69 -31 -12
-58 -20 -59 -19 -7 9 -37 116 -52 188 -20 95 -24 331 -7 390 6 20 7 50 3 70
-16 70 -30 329 -27 485 l3 159 48 17 c94 34 162 84 311 232 82 81 146 150 143
154 -4 3 -13 0 -22 -7 -13 -11 -15 -7 -15 29 0 22 -4 41 -9 41 -4 0 -6 -21 -4
-47 4 -44 1 -52 -32 -90 -20 -24 -40 -43 -43 -43 -4 0 -5 24 -4 54 2 30 -1 63
-7 73 -8 14 -10 -3 -11 -68 0 -81 -2 -88 -25 -103 l-25 -16 -1 57 c0 32 -5 67
-10 78 -6 13 -7 -9 -3 -65 l5 -85 -41 -40 c-24 -24 -40 -33 -40 -25 -2 66 -13
196 -16 200 -3 2 -4 -47 -3 -110 1 -112 1 -114 -25 -137 -15 -13 -31 -23 -37
-23 -5 0 -9 46 -9 105 0 58 -4 105 -9 105 -5 0 -8 -48 -7 -110 3 -105 2 -111
-21 -125 l-23 -15 -1 127 c0 81 -4 121 -9 108 -5 -11 -9 -70 -9 -131 -1 -106
-2 -112 -23 -117 -12 -4 -23 -5 -24 -4 -5 5 17 247 27 298 l11 55 68 19 c38
10 155 58 262 105 106 48 194 86 195 85 1 0 -6 -34 -17 -75z m-3723 48 c-3 -8
-6 -5 -6 6 -1 11 2 17 5 13 3 -3 4 -12 1 -19z m6063 2 c0 -5 -5 -10 -11 -10
-5 0 -7 5 -4 10 3 6 8 10 11 10 2 0 4 -4 4 -10z m-6040 -30 c0 -5 -4 -10 -10
-10 -5 0 -10 5 -10 10 0 6 5 10 10 10 6 0 10 -4 10 -10z m-90 -20 c0 -5 -2
-10 -4 -10 -3 0 -8 5 -11 10 -3 6 -1 10 4 10 6 0 11 -4 11 -10z m6180 -15 c0
-1 -9 -5 -19 -8 -13 -3 -18 -1 -14 9 4 10 33 10 33 -1z m-6202 -13 c6 -18 -15
-14 -22 4 -4 10 -1 14 6 12 6 -2 14 -10 16 -16z m94 -4 c-7 -7 -12 -8 -12 -2
0 14 12 26 19 19 2 -3 -1 -11 -7 -17z m6127 -42 c-3 -3 -11 5 -18 17 -13 21
-12 21 5 5 10 -10 16 -20 13 -22z m-169 4 c0 -5 -5 -10 -11 -10 -5 0 -7 5 -4
10 3 6 8 10 11 10 2 0 4 -4 4 -10z m-60 -30 c0 -5 -5 -10 -11 -10 -5 0 -7 5
-4 10 3 6 8 10 11 10 2 0 4 -4 4 -10z m-5750 -20 c0 -5 -2 -10 -4 -10 -3 0 -8
5 -11 10 -3 6 -1 10 4 10 6 0 11 -4 11 -10z m40 -4 c0 -11 -19 -15 -25 -6 -3
5 1 10 9 10 9 0 16 -2 16 -4z m3610 -43 c0 -12 9 -47 21 -77 16 -45 35 -69 98
-126 43 -39 95 -83 115 -98 36 -27 96 -105 96 -124 0 -10 -63 31 -152 99 -87
67 -157 138 -174 180 -18 43 -31 207 -15 183 6 -8 11 -25 11 -37z m-3581 -38
c0 -16 -1 -17 -8 -5 -5 8 -12 26 -16 40 -7 24 -7 24 9 5 8 -11 15 -29 15 -40z
m42 -28 c-10 -9 -11 -8 -5 6 3 10 9 15 12 12 3 -3 0 -11 -7 -18z m60 -64 c-12
-20 -14 -14 -5 12 4 9 9 14 11 11 3 -2 0 -13 -6 -23z m2071 -40 c-25 -69 -283
-353 -321 -353 -14 0 -14 53 -1 102 9 32 20 42 72 68 113 58 184 115 235 193
14 20 27 37 29 37 2 0 -5 -21 -14 -47z m-2084 -31 c3 -11 0 -12 -16 -3 -10 6
-23 7 -27 3 -5 -4 -5 -1 -1 6 10 16 38 12 44 -6z m5532 -27 c0 -8 -4 -15 -10
-15 -5 0 -10 5 -10 11 0 5 -4 7 -10 4 -5 -3 -10 -1 -10 4 0 6 9 11 20 11 11 0
20 -7 20 -15z m-5470 -5 c0 -5 -2 -10 -4 -10 -3 0 -8 5 -11 10 -3 6 -1 10 4
10 6 0 11 -4 11 -10z m5275 -20 c3 -5 -1 -10 -10 -10 -9 0 -13 5 -10 10 3 6 8
10 10 10 2 0 7 -4 10 -10z m-5312 -15 c-3 -9 -8 -14 -10 -11 -3 3 -2 9 2 15 9
16 15 13 8 -4z m1551 -112 c8 -19 -18 -49 -66 -77 l-33 -20 28 35 c15 19 33
44 39 57 13 26 24 28 32 5z m-1244 -283 c0 -5 -2 -10 -4 -10 -3 0 -8 5 -11 10
-3 6 -1 10 4 10 6 0 11 -4 11 -10z m80 -40 c0 -5 -2 -10 -4 -10 -3 0 -8 5 -11
10 -3 6 -1 10 4 10 6 0 11 -4 11 -10z"/>
<path d="M4693 5815 c0 -22 2 -30 4 -17 2 12 2 30 0 40 -3 9 -5 -1 -4 -23z"/>
<path d="M6122 5810 c0 -8 8 -37 18 -65 10 -27 18 -43 18 -35 0 8 -8 38 -18
65 -10 28 -18 43 -18 35z"/>
<path d="M6072 5738 c3 -7 13 -37 23 -66 9 -29 19 -52 21 -49 5 5 -36 127 -43
127 -3 0 -3 -6 -1 -12z"/>
<path d="M6029 5645 c17 -54 21 -61 16 -25 -3 19 -10 39 -15 44 -7 7 -7 1 -1
-19z"/>
<path d="M6000 5556 c0 -2 8 -10 18 -17 15 -13 16 -12 3 4 -13 16 -21 21 -21
13z"/>
<path d="M7300 4959 c-12 -48 -63 -152 -89 -184 l-16 -20 24 20 c39 34 115
205 97 222 -2 3 -10 -15 -16 -38z"/>
<path d="M7105 4688 c-22 -27 -59 -64 -82 -81 -24 -17 -41 -32 -39 -35 13 -12
166 135 166 159 0 14 -2 12 -45 -43z"/>
<path d="M5960 4651 c42 -35 123 -78 165 -86 17 -3 4 6 -30 21 -33 14 -81 41
-108 60 -58 42 -74 44 -27 5z"/>
<path d="M7106 4633 c-21 -24 -57 -56 -80 -71 -22 -14 -43 -27 -45 -29 -2 -2
-2 -5 1 -8 9 -9 123 80 148 114 34 48 20 45 -24 -6z"/>
<path d="M4940 4619 l-35 -31 31 15 c17 9 36 23 43 31 22 27 -2 17 -39 -15z"/>
<path d="M5005 4582 c-17 -15 -44 -37 -60 -50 l-30 -23 33 18 c40 21 111 82
97 82 -5 0 -24 -12 -40 -27z"/>
<path d="M6050 4529 c55 -45 259 -123 277 -105 3 2 -15 10 -38 16 -76 19 -157
51 -204 81 -53 34 -71 38 -35 8z"/>
<path d="M4210 4505 c0 -8 82 -45 100 -45 8 0 -9 11 -38 25 -58 27 -62 28 -62
20z"/>
<path d="M6270 4474 c19 -9 64 -22 100 -30 69 -14 240 -19 240 -6 0 4 -46 8
-103 8 -58 1 -128 8 -162 17 -99 27 -114 29 -75 11z"/>
<path d="M4735 4450 c-40 -16 -112 -34 -167 -41 -54 -7 -98 -17 -98 -21 0 -4
12 -5 28 -3 15 3 59 9 99 15 76 11 213 56 213 71 0 5 -1 9 -2 8 -2 -1 -34 -14
-73 -29z"/>
<path d="M4710 4394 c-97 -51 -70 -49 33 2 61 31 80 45 60 43 -5 0 -46 -20
-93 -45z"/>
<path d="M4785 4384 c-46 -32 -111 -57 -215 -85 -25 -6 -40 -14 -33 -16 35
-13 223 59 282 108 40 33 19 29 -34 -7z"/>
<path d="M6176 4411 c5 -4 38 -18 74 -30 119 -41 352 -39 469 4 48 18 27 18
-51 1 -149 -34 -308 -29 -434 14 -64 22 -72 24 -58 11z"/>
<path d="M4227 4395 c17 -8 51 -17 75 -20 l43 -5 -40 14 c-22 7 -56 16 -75 20
l-35 6 32 -15z"/>
<path d="M6410 4398 c0 -10 135 -8 175 2 19 5 -8 7 -72 6 -57 0 -103 -4 -103
-8z"/>
<path d="M4165 4383 c37 -38 234 -78 335 -67 111 11 94 19 -43 19 -132 0 -148
3 -282 51 -14 5 -17 4 -10 -3z"/>
<path d="M5504 4345 c-7 -48 -1 -75 16 -75 6 0 10 25 10 60 0 70 -16 80 -26
15z"/>
<path d="M4460 4359 c-19 -5 -14 -7 22 -8 26 -1 50 4 53 9 7 11 -33 11 -75 -1z"/>
<path d="M5443 3845 c-114 -25 -272 -125 -308 -195 -13 -26 -13 -30 4 -52 19
-22 25 -23 188 -25 92 -2 231 -6 308 -10 236 -13 316 5 323 73 5 55 -98 157
-198 195 -69 27 -227 33 -317 14z m77 -22 c-1 -5 -13 -23 -29 -41 l-27 -32
-24 25 c-27 28 -24 34 22 45 45 11 58 11 58 3z m160 -2 c0 -5 -12 -24 -27 -41
l-27 -32 -28 31 c-15 17 -28 36 -28 41 0 6 25 10 55 10 30 0 55 -4 55 -9z
m140 -55 c-1 -16 -50 -50 -50 -35 0 7 -11 27 -25 45 -14 18 -25 35 -25 38 0 3
23 -4 50 -16 28 -11 50 -26 50 -32z m-460 18 c0 -5 -19 -45 -25 -52 -2 -2 -13
2 -25 8 l-22 12 28 19 c29 19 44 24 44 13z m100 -186 c0 -10 -17 -10 -59 -2
l-31 6 23 28 22 28 22 -27 c12 -14 22 -29 23 -33z m114 31 c14 -17 26 -34 26
-37 0 -4 -25 -5 -55 -4 -30 2 -55 6 -55 8 0 9 44 64 51 64 4 0 19 -14 33 -31z
m-304 -23 c0 -6 -21 -12 -48 -14 l-47 -2 35 30 c32 26 36 28 48 13 6 -9 12
-22 12 -27z m468 15 c17 -17 32 -32 32 -36 0 -3 -25 -5 -55 -4 -30 1 -55 6
-55 11 0 11 33 57 40 58 3 0 20 -13 38 -29z m142 -31 c-16 -10 -80 -14 -80 -5
0 3 10 19 22 36 l22 29 26 -25 c21 -22 23 -27 10 -35z"/>
<path d="M3791 4934 c0 -11 3 -14 6 -6 3 7 2 16 -1 19 -3 4 -6 -2 -5 -13z"/>
<path d="M3801 4834 c-2 -23 142 -184 163 -184 5 0 -22 33 -60 73 -38 39 -77
83 -86 97 -9 14 -17 20 -17 14z"/>
<path d="M3821 4738 c15 -28 101 -120 107 -114 2 3 -17 26 -42 53 -25 26 -49
56 -52 65 -3 10 -10 18 -15 18 -6 0 -5 -9 2 -22z"/>
<path d="M3818 4682 c39 -62 68 -93 124 -132 32 -23 58 -38 57 -33 0 4 -27 27
-59 50 -33 24 -74 65 -92 93 -34 51 -61 72 -30 22z"/>
<path d="M3139 6233 c-13 -16 -12 -17 4 -4 9 7 17 15 17 17 0 8 -8 3 -21 -13z"/>
<path d="M3109 6193 c-13 -16 -12 -17 4 -4 16 13 21 21 13 21 -2 0 -10 -8 -17
-17z"/>
<path d="M3064 6178 l-19 -23 23 19 c21 18 27 26 19 26 -2 0 -12 -10 -23 -22z"/>
<path d="M2639 6123 l-24 -28 28 24 c25 23 32 31 24 31 -2 0 -14 -12 -28 -27z"/>
<path d="M2929 6133 c-13 -16 -12 -17 4 -4 9 7 17 15 17 17 0 8 -8 3 -21 -13z"/>
<path d="M2349 6113 l-24 -28 28 24 c25 23 32 31 24 31 -2 0 -14 -12 -28 -27z"/>
<path d="M2459 6113 l-24 -28 28 24 c25 23 32 31 24 31 -2 0 -14 -12 -28 -27z"/>
<path d="M2569 6093 c-13 -16 -12 -17 4 -4 9 7 17 15 17 17 0 8 -8 3 -21 -13z"/>
<path d="M2140 6080 c-9 -6 -10 -10 -3 -10 6 0 15 5 18 10 8 12 4 12 -15 0z"/>
<path d="M2489 6073 c-13 -16 -12 -17 4 -4 9 7 17 15 17 17 0 8 -8 3 -21 -13z"/>
<path d="M2455 5799 c-4 -6 -5 -12 -2 -15 2 -3 7 2 10 11 7 17 1 20 -8 4z"/>
<path d="M3061 5764 c0 -11 3 -14 6 -6 3 7 2 16 -1 19 -3 4 -6 -2 -5 -13z"/>
<path d="M2912 5635 c0 -16 2 -22 5 -12 2 9 2 23 0 30 -3 6 -5 -1 -5 -18z"/>
<path d="M7610 5875 c13 -14 26 -25 28 -25 3 0 -5 11 -18 25 -13 14 -26 25
-28 25 -3 0 5 -11 18 -25z"/>
<path d="M2238 5693 c7 -3 16 -2 19 1 4 3 -2 6 -13 5 -11 0 -14 -3 -6 -6z"/>
<path d="M8379 5413 c-13 -16 -12 -17 4 -4 16 13 21 21 13 21 -2 0 -10 -8 -17
-17z"/>
<path d="M8484 5378 l-29 -33 35 30 c19 17 37 31 39 33 2 1 0 2 -5 2 -6 0 -23
-15 -40 -32z"/>
<path d="M8469 5323 c-13 -16 -12 -17 4 -4 9 7 17 15 17 17 0 8 -8 3 -21 -13z"/>
<path d="M3396 5535 c-3 -8 -1 -15 4 -15 6 0 10 7 10 15 0 8 -2 15 -4 15 -2 0
-6 -7 -10 -15z"/>
<path d="M3360 5386 c0 -2 8 -10 18 -17 15 -13 16 -12 3 4 -13 16 -21 21 -21
13z"/>
<path d="M3350 5306 c0 -2 8 -10 18 -17 15 -13 16 -12 3 4 -13 16 -21 21 -21
13z"/>
<path d="M3270 5271 c0 -6 4 -13 10 -16 6 -3 7 1 4 9 -7 18 -14 21 -14 7z"/>
<path d="M3330 5126 c0 -2 8 -10 18 -17 15 -13 16 -12 3 4 -13 16 -21 21 -21
13z"/>
<path d="M3320 5080 c12 -16 24 -30 26 -30 3 0 -4 14 -16 30 -12 17 -24 30
-26 30 -3 0 4 -13 16 -30z"/>
<path d="M3345 4980 c10 -11 20 -20 23 -20 3 0 -3 9 -13 20 -10 11 -20 20 -23
20 -3 0 3 -9 13 -20z"/>
<path d="M3360 4936 c0 -2 8 -10 18 -17 15 -13 16 -12 3 4 -13 16 -21 21 -21
13z"/>
<path d="M2420 5456 c0 -2 8 -10 18 -17 15 -13 16 -12 3 4 -13 16 -21 21 -21
13z"/>
<path d="M2400 5412 c20 -27 60 -61 158 -135 7 -6 12 -6 12 0 0 5 -11 15 -24
21 -14 6 -57 41 -97 79 -42 39 -63 54 -49 35z"/>
<path d="M2398 5372 c13 -17 28 -35 34 -39 7 -3 2 8 -10 25 -13 17 -28 35 -34
39 -7 3 -2 -8 10 -25z"/>
<path d="M2480 5396 c0 -2 8 -10 18 -17 15 -13 16 -12 3 4 -13 16 -21 21 -21
13z"/>
<path d="M2485 5270 c10 -11 20 -20 23 -20 3 0 -3 9 -13 20 -10 11 -20 20 -23
20 -3 0 3 -9 13 -20z"/>
<path d="M2520 5246 c0 -7 71 -49 75 -44 2 2 -14 14 -36 26 -21 12 -39 21 -39
18z"/>
<path d="M5217 5505 c-4 -8 -3 -16 1 -19 4 -3 9 4 9 15 2 23 -3 25 -10 4z"/>
<path d="M5240 5470 c0 -5 5 -10 11 -10 5 0 7 5 4 10 -3 6 -8 10 -11 10 -2 0
-4 -4 -4 -10z"/>
<path d="M3246 4995 c9 -14 21 -25 27 -25 6 0 0 11 -13 25 -13 14 -25 25 -27
25 -2 0 4 -11 13 -25z"/>
<path d="M3125 4790 c11 -5 29 -8 40 -8 16 0 15 2 -5 8 -34 11 -60 11 -35 0z"/>
<path d="M3203 4773 c9 -2 25 -2 35 0 9 3 1 5 -18 5 -19 0 -27 -2 -17 -5z"/>
<path d="M3273 4763 c9 -2 25 -2 35 0 9 3 1 5 -18 5 -19 0 -27 -2 -17 -5z"/>
<path d="M3318 4653 c7 -3 16 -2 19 1 4 3 -2 6 -13 5 -11 0 -14 -3 -6 -6z"/>
<path d="M3370 4581 c-19 -3 -30 -9 -25 -12 6 -3 30 0 55 7 47 13 30 16 -30 5z"/>
<path d="M7350 4046 c0 -2 8 -10 18 -17 15 -13 16 -12 3 4 -13 16 -21 21 -21
13z"/>
<path d="M4875 1731 c-8 -27 1 -41 26 -41 16 0 20 6 17 27 -4 34 -33 43 -43
14z"/>
<path d="M4933 1663 c-19 -7 -16 -48 6 -74 l20 -24 20 20 c13 13 18 28 15 41
-6 23 -41 44 -61 37z"/>
<path d="M6342 2303 c3 -30 35 -44 48 -23 14 22 -1 50 -27 50 -21 0 -24 -4
-21 -27z"/>
<path d="M6290 2265 c0 -8 9 -15 20 -15 11 0 20 7 20 15 0 8 -9 15 -20 15 -11
0 -20 -7 -20 -15z"/>
<path d="M5930 1635 c0 -8 7 -15 15 -15 8 0 15 7 15 15 0 8 -7 15 -15 15 -8 0
-15 -7 -15 -15z"/>
<path d="M5987 1604 c-24 -25 7 -82 39 -70 24 9 15 70 -11 74 -12 2 -24 0 -28
-4z"/>
<path d="M5925 1561 c-8 -15 3 -31 21 -31 9 0 14 7 12 17 -4 20 -24 28 -33 14z"/>
<path d="M6283 10503 c-17 -6 -16 -43 1 -43 18 0 39 27 31 40 -7 11 -13 11
-32 3z"/>
<path d="M6247 10333 c-8 -7 11 -33 24 -33 5 0 9 9 9 20 0 19 -20 27 -33 13z"/>
<path d="M6338 10318 c-27 -23 -37 -50 -25 -75 20 -45 81 -37 93 13 14 54 -29
93 -68 62z"/>
<path d="M4772 10180 c0 -14 2 -19 5 -12 2 6 2 18 0 25 -3 6 -5 1 -5 -13z"/>
<path d="M4952 9835 c0 -16 2 -22 5 -12 2 9 2 23 0 30 -3 6 -5 -1 -5 -18z"/>
<path d="M4932 9800 c0 -19 2 -27 5 -17 2 9 2 25 0 35 -3 9 -5 1 -5 -18z"/>
<path d="M4849 9808 c-11 -35 -25 -127 -20 -142 4 -16 8 -9 13 24 11 59 17
120 12 120 -2 0 -4 -1 -5 -2z"/>
<path d="M4860 9710 c0 -11 4 -20 9 -20 17 0 19 15 5 28 -12 11 -14 9 -14 -8z"/>
<path d="M4942 9700 c0 -14 2 -19 5 -12 2 6 2 18 0 25 -3 6 -5 1 -5 -13z"/>
<path d="M4886 9675 c-9 -26 -7 -32 5 -12 6 10 9 21 6 23 -2 3 -7 -2 -11 -11z"/>
<path d="M4852 9660 c0 -14 2 -19 5 -12 2 6 2 18 0 25 -3 6 -5 1 -5 -13z"/>
<path d="M4931 9654 c0 -11 3 -14 6 -6 3 7 2 16 -1 19 -3 4 -6 -2 -5 -13z"/>
<path d="M4862 9493 c2 -62 7 -116 12 -120 7 -8 -3 218 -11 227 -2 2 -3 -46
-1 -107z"/>
<path d="M4893 9525 c0 -33 2 -45 4 -27 2 18 2 45 0 60 -2 15 -4 0 -4 -33z"/>
<path d="M3531 9474 c0 -11 3 -14 6 -6 3 7 2 16 -1 19 -3 4 -6 -2 -5 -13z"/>
<path d="M3546 9333 c-6 -14 -5 -15 5 -6 7 7 10 15 7 18 -3 3 -9 -2 -12 -12z"/>
<path d="M4150 9336 c-16 -20 -5 -48 17 -44 12 2 17 11 15 23 -5 30 -17 38
-32 21z"/>
<path d="M4080 9261 c0 -12 5 -21 10 -21 6 0 10 6 10 14 0 8 -4 18 -10 21 -5
3 -10 -3 -10 -14z"/>
<path d="M4178 9249 c-40 -23 -6 -89 36 -73 19 7 21 55 4 72 -14 14 -18 14
-40 1z"/>
<path d="M7827 9225 c-7 -16 8 -29 23 -20 15 9 12 35 -4 35 -8 0 -16 -7 -19
-15z"/>
<path d="M7732 9174 c-36 -25 -27 -94 13 -94 46 0 72 62 39 94 -19 20 -24 20
-52 0z"/>
<path d="M7199 8983 l-24 -28 28 24 c15 14 27 26 27 28 0 8 -8 1 -31 -24z"/>
<path d="M8421 8897 c-13 -21 -12 -21 5 -5 10 10 16 20 13 22 -3 3 -11 -5 -18
-17z"/>
<path d="M7179 8843 c-13 -16 -12 -17 4 -4 9 7 17 15 17 17 0 8 -8 3 -21 -13z"/>
<path d="M8370 8825 c-17 -18 -21 -28 -13 -36 8 -8 13 -7 18 2 5 8 4 10 -3 5
-19 -12 -14 6 10 31 12 13 19 23 16 23 -2 0 -15 -11 -28 -25z"/>
<path d="M5764 8774 c-8 -31 11 -47 38 -33 21 11 23 30 6 47 -19 19 -37 14
-44 -14z"/>
<path d="M5890 8785 c-15 -18 -10 -45 12 -58 22 -15 68 6 68 31 0 39 -55 58
-80 27z"/>
<path d="M8314 8758 l-19 -23 23 19 c21 18 27 26 19 26 -2 0 -12 -10 -23 -22z"/>
<path d="M5925 8680 c-73 -16 -115 -70 -93 -118 19 -40 74 -42 117 -6 74 62
58 142 -24 124z"/>
<path d="M8309 8673 c-13 -16 -12 -17 4 -4 9 7 17 15 17 17 0 8 -8 3 -21 -13z"/>
<path d="M8259 8633 c-13 -16 -12 -17 4 -4 9 7 17 15 17 17 0 8 -8 3 -21 -13z"/>
<path d="M2331 8491 c-10 -6 -9 -10 3 -14 8 -3 18 -2 21 3 8 13 -9 20 -24 11z"/>
<path d="M2003 8114 c-8 -20 13 -42 27 -28 12 12 3 44 -11 44 -5 0 -12 -7 -16
-16z"/>
<path d="M2192 8004 c-32 -22 -30 -73 6 -107 34 -33 52 -34 80 -4 31 33 29 80
-4 106 -32 25 -52 26 -82 5z"/>
<path d="M8420 7994 c0 -8 5 -12 10 -9 6 3 10 10 10 16 0 5 -4 9 -10 9 -5 0
-10 -7 -10 -16z"/>
<path d="M8505 7980 c-11 -17 5 -32 21 -19 7 6 11 15 8 20 -7 12 -21 11 -29
-1z"/>
<path d="M2071 7957 c-17 -17 -13 -35 10 -48 26 -14 44 1 35 29 -8 25 -30 34
-45 19z"/>
<path d="M8435 7893 c-31 -30 -9 -103 30 -103 18 0 55 48 55 70 0 35 -60 58
-85 33z"/>
<path d="M1790 7731 c0 -5 21 -33 48 -62 86 -97 196 -191 322 -275 96 -65 100
-67 100 -57 0 4 -21 21 -48 37 -98 62 -242 179 -330 270 -51 52 -92 91 -92 87z"/>
<path d="M3906 7231 c-8 -13 3 -38 19 -45 18 -6 39 20 31 39 -6 16 -41 21 -50
6z"/>
<path d="M7163 7150 c0 -20 3 -26 9 -18 10 17 10 48 0 48 -5 0 -9 -14 -9 -30z"/>
<path d="M3952 7118 c-19 -19 -14 -55 12 -85 24 -27 26 -27 53 -13 36 20 42
61 14 89 -23 23 -61 27 -79 9z"/>
<path d="M7171 7024 c0 -11 3 -14 6 -6 3 7 2 16 -1 19 -3 4 -6 -2 -5 -13z"/>
<path d="M3711 6984 c0 -11 3 -14 6 -6 3 7 2 16 -1 19 -3 4 -6 -2 -5 -13z"/>
<path d="M3722 6930 c0 -14 2 -19 5 -12 2 6 2 18 0 25 -3 6 -5 1 -5 -13z"/>
<path d="M7311 6894 c0 -11 3 -14 6 -6 3 7 2 16 -1 19 -3 4 -6 -2 -5 -13z"/>
<path d="M5910 6700 c-12 -7 -12 -12 -2 -22 9 -9 15 -9 24 0 8 8 9 15 2 22 -5
5 -15 6 -24 0z"/>
<path d="M3601 6684 c0 -11 3 -14 6 -6 3 7 2 16 -1 19 -3 4 -6 -2 -5 -13z"/>
<path d="M6000 6685 c0 -9 5 -15 11 -13 6 2 11 8 11 13 0 5 -5 11 -11 13 -6 2
-11 -4 -11 -13z"/>
<path d="M5961 6611 c-8 -14 -8 -27 1 -46 16 -36 58 -31 71 8 10 33 4 43 -35
52 -20 5 -29 2 -37 -14z"/>
<path d="M5105 6590 c16 -74 16 -76 0 -42 -21 45 -29 40 -9 -5 9 -21 21 -51
26 -68 6 -16 15 -34 20 -40 15 -16 1 65 -22 125 -11 30 -18 44 -15 30z"/>
<path d="M5120 6401 c0 -5 5 -13 10 -16 6 -3 10 -2 10 4 0 5 -4 13 -10 16 -5
3 -10 2 -10 -4z"/>
<path d="M5140 6271 c0 -7 -4 -9 -10 -6 -5 3 -10 2 -10 -4 0 -5 4 -12 9 -15
10 -6 25 24 16 32 -3 3 -5 0 -5 -7z"/>
<path d="M5050 6216 c0 -11 50 -106 55 -106 3 0 -7 24 -21 53 -28 55 -34 65
-34 53z"/>
<path d="M3483 6138 c-15 -20 -25 -38 -20 -38 3 0 12 11 21 25 17 26 16 35 -1
13z"/>
<path d="M8910 6146 c0 -2 7 -6 15 -10 8 -3 15 -1 15 4 0 6 -7 10 -15 10 -8 0
-15 -2 -15 -4z"/>
<path d="M7820 6105 c0 -5 5 -17 10 -25 5 -8 10 -10 10 -5 0 6 -5 17 -10 25
-5 8 -10 11 -10 5z"/>
<path d="M3445 6079 c-4 -6 -5 -12 -2 -15 2 -3 7 2 10 11 7 17 1 20 -8 4z"/>
<path d="M7410 6059 c0 -14 31 -81 36 -76 3 3 -4 22 -15 44 -11 21 -20 35 -21
32z"/>
<path d="M6730 6041 c0 -6 4 -13 10 -16 6 -3 7 1 4 9 -7 18 -14 21 -14 7z"/>
<path d="M7940 6026 c0 -2 8 -10 18 -17 15 -13 16 -12 3 4 -13 16 -21 21 -21
13z"/>
<path d="M8020 6000 c6 -11 13 -20 16 -20 2 0 0 9 -6 20 -6 11 -13 20 -16 20
-2 0 0 -9 6 -20z"/>
<path d="M5150 5996 c0 -2 8 -10 18 -17 15 -13 16 -12 3 4 -13 16 -21 21 -21
13z"/>
<path d="M3149 5953 c-13 -16 -12 -17 4 -4 9 7 17 15 17 17 0 8 -8 3 -21 -13z"/>
<path d="M7530 5936 c0 -9 5 -16 10 -16 6 0 10 4 10 9 0 6 -4 13 -10 16 -5 3
-10 -1 -10 -9z"/>
<path d="M9040 5925 c0 -8 7 -15 15 -15 8 0 15 7 15 15 0 8 -7 15 -15 15 -8 0
-15 -7 -15 -15z"/>
<path d="M3169 5913 c-13 -16 -12 -17 4 -4 16 13 21 21 13 21 -2 0 -10 -8 -17
-17z"/>
<path d="M2734 5899 c-19 -22 -19 -22 4 -8 12 8 22 17 22 21 0 12 -6 9 -26
-13z"/>
<path d="M2829 5903 c-13 -16 -12 -17 4 -4 9 7 17 15 17 17 0 8 -8 3 -21 -13z"/>
<path d="M2874 5898 l-19 -23 23 19 c21 18 27 26 19 26 -2 0 -12 -10 -23 -22z"/>
<path d="M3299 5893 c-13 -16 -12 -17 4 -4 9 7 17 15 17 17 0 8 -8 3 -21 -13z"/>
<path d="M8982 5883 c-7 -12 -7 -25 -1 -36 14 -25 51 -4 47 26 -4 28 -34 34
-46 10z"/>
<path d="M2879 5873 c-13 -16 -12 -17 4 -4 9 7 17 15 17 17 0 8 -8 3 -21 -13z"/>
<path d="M7956 5818 c3 -5 10 -6 15 -3 13 9 11 12 -6 12 -8 0 -12 -4 -9 -9z"/>
<path d="M5190 5785 c19 -19 36 -35 39 -35 3 0 -10 16 -29 35 -19 19 -36 35
-39 35 -3 0 10 -16 29 -35z"/>
<path d="M5165 5780 c10 -11 20 -20 23 -20 3 0 -3 9 -13 20 -10 11 -20 20 -23
20 -3 0 3 -9 13 -20z"/>
<path d="M7137 5753 c3 -10 19 -29 36 -43 l32 -25 -34 43 c-39 47 -41 49 -34
25z"/>
<path d="M5170 5736 c0 -2 8 -10 18 -17 15 -13 16 -12 3 4 -13 16 -21 21 -21
13z"/>
<path d="M7931 5714 c0 -11 3 -14 6 -6 3 7 2 16 -1 19 -3 4 -6 -2 -5 -13z"/>
<path d="M7942 5645 c0 -16 2 -22 5 -12 2 9 2 23 0 30 -3 6 -5 -1 -5 -18z"/>
<path d="M7881 5634 c0 -11 3 -14 6 -6 3 7 2 16 -1 19 -3 4 -6 -2 -5 -13z"/>
<path d="M5141 5337 c2 -1 13 -9 24 -17 19 -14 19 -14 6 3 -7 9 -18 17 -24 17
-6 0 -8 -1 -6 -3z"/>
<path d="M3221 4201 c-9 -6 -11 -18 -7 -35 9 -35 35 -45 52 -21 18 24 17 30
-2 49 -18 18 -24 19 -43 7z"/>
<path d="M3140 4141 c0 -23 25 -34 39 -17 7 9 7 16 -1 24 -18 18 -38 14 -38
-7z"/>
<path d="M9197 4024 c-9 -10 2 -24 19 -24 8 0 14 7 14 15 0 15 -21 21 -33 9z"/>
<path d="M9142 3968 c-7 -7 -12 -24 -12 -38 0 -48 42 -66 73 -32 23 25 21 48
-5 66 -27 19 -40 20 -56 4z"/>
<path d="M9240 3905 c-17 -21 -2 -50 26 -50 14 0 19 7 19 30 0 34 -24 45 -45
20z"/>
<path d="M1875 3710 c-8 -13 56 -62 72 -56 8 4 24 6 36 6 18 0 15 5 -17 27
-41 27 -82 38 -91 23z"/>
<path d="M8993 3655 c-32 -14 -53 -41 -53 -69 0 -24 28 -19 41 7 6 12 23 34
37 50 29 30 23 33 -25 12z"/>
<path d="M2037 3613 c-4 -3 -7 -12 -7 -20 0 -15 26 -18 34 -4 7 11 -18 33 -27
24z"/>
<path d="M1995 3540 c-8 -13 14 -42 26 -34 5 3 9 14 9 25 0 20 -24 26 -35 9z"/>
<path d="M2054 3525 c-8 -32 14 -59 40 -49 27 10 18 68 -11 72 -17 3 -24 -3
-29 -23z"/>
<path d="M8890 3402 c0 -19 37 -40 80 -46 l45 -7 -35 30 c-33 28 -90 42 -90
23z"/>
<path d="M8678 3352 c-21 -7 -58 -44 -58 -59 0 -14 37 -10 73 9 10 5 46 13 80
17 60 7 61 8 33 20 -30 12 -104 20 -128 13z"/>
<path d="M6464 3255 c-8 -20 4 -35 27 -35 24 0 37 29 18 41 -21 13 -39 11 -45
-6z"/>
<path d="M6557 3234 c-46 -46 -29 -99 30 -92 37 4 61 46 47 85 -13 38 -44 41
-77 7z"/>
<path d="M2182 3150 c-19 -38 -20 -80 -2 -80 12 0 40 65 40 94 0 38 -15 32
-38 -14z"/>
<path d="M4484 3156 c-3 -14 -3 -30 1 -35 8 -14 42 -14 51 0 4 7 12 -1 20 -20
14 -32 32 -39 52 -19 16 16 15 50 -2 74 -12 16 -18 17 -35 7 -15 -10 -22 -9
-31 2 -19 23 -49 18 -56 -9z"/>
<path d="M8714 3055 c-4 -9 0 -24 10 -33 15 -15 18 -15 26 -2 6 8 9 22 7 30
-3 21 -36 25 -43 5z"/>
<path d="M8622 3028 c-19 -19 -14 -47 13 -73 42 -43 75 -29 75 30 0 45 -58 73
-88 43z"/>
<path d="M4177 2912 c-22 -25 -21 -75 1 -95 25 -23 69 -22 82 2 36 69 -34 147
-83 93z"/>
<path d="M4074 2875 c-7 -29 10 -55 36 -55 35 0 35 51 -1 70 -25 14 -28 13
-35 -15z"/>
<path d="M6782 2870 c-26 -11 -45 -55 -38 -86 13 -51 84 -34 104 26 10 26 8
34 -8 50 -22 22 -25 23 -58 10z"/>
<path d="M2387 2843 c-7 -37 2 -74 32 -128 16 -29 21 -33 17 -15 -3 14 -6 48
-6 76 0 35 -6 59 -18 75 l-19 22 -6 -30z"/>
<path d="M8433 2843 c-45 -26 -100 -104 -123 -177 -11 -33 -10 -40 5 -55 16
-15 17 -15 11 5 -7 22 27 75 63 101 12 8 21 20 21 28 0 7 16 37 35 65 20 29
34 54 33 55 -2 1 -22 -9 -45 -22z"/>
<path d="M2212 2683 c2 -20 8 -28 23 -28 31 0 28 49 -3 53 -20 3 -23 0 -20
-25z"/>
<path d="M2238 2628 c-36 -45 -17 -118 31 -118 58 0 87 84 41 122 -29 24 -51
23 -72 -4z"/>
<path d="M2777 2495 c-14 -32 -17 -56 -12 -85 7 -41 25 -56 25 -20 0 12 7 34
15 51 15 28 12 99 -4 99 -3 0 -14 -20 -24 -45z"/>
<path d="M2860 2394 c-13 -32 -13 -75 0 -94 8 -12 10 -10 10 8 0 13 7 36 16
52 17 28 14 60 -6 60 -6 0 -15 -12 -20 -26z"/>
<path d="M7900 2347 c-53 -26 -29 -107 32 -107 21 0 31 6 38 25 10 27 -2 74
-23 87 -16 10 -18 10 -47 -5z"/>
<path d="M7705 2276 c-6 -35 -3 -51 9 -69 9 -12 26 -36 37 -54 11 -17 31 -39
45 -48 25 -16 26 -16 19 7 -11 38 -78 182 -91 197 -10 11 -14 5 -19 -33z"/>
<path d="M8007 2313 c-4 -3 -7 -15 -7 -25 0 -21 36 -25 43 -5 9 27 -17 50 -36
30z"/>
<path d="M7985 2190 c-12 -20 6 -51 28 -48 31 4 31 52 0 56 -11 2 -24 -2 -28
-8z"/>
<path d="M3004 2075 c-7 -18 3 -35 21 -35 18 0 26 25 12 39 -15 15 -27 14 -33
-4z"/>
<path d="M2952 2044 c2 -11 11 -20 22 -22 13 -3 17 1 14 14 -2 11 -11 20 -22
22 -13 3 -17 -1 -14 -14z"/>
<path d="M3003 2013 c-28 -11 -10 -52 34 -77 12 -6 43 18 43 35 0 14 -38 49
-52 48 -7 0 -19 -3 -25 -6z"/>
<path d="M3163 1948 c-33 -16 -28 -25 18 -33 45 -8 67 8 47 32 -12 15 -35 16
-65 1z"/>
<path d="M7666 1728 c-13 -107 -60 -337 -98 -488 -70 -274 -85 -333 -102 -422
-27 -138 -14 -136 17 2 16 69 51 208 78 310 75 285 143 650 121 650 -5 0 -12
-24 -16 -52z"/>
<path d="M3200 1417 c-11 -24 -33 -100 -50 -168 -24 -98 -30 -144 -29 -224 1
-102 15 -235 18 -166 1 30 3 32 19 20 16 -13 16 -13 0 6 -11 14 -17 41 -18 85
-3 112 0 161 8 157 4 -3 7 9 8 26 1 40 10 93 24 149 6 24 16 60 21 81 11 43
24 48 33 11 10 -40 18 -22 10 25 -4 22 -11 41 -16 41 -5 0 -18 -20 -28 -43z"/>
<path d="M7304 1423 c12 -42 25 -211 31 -383 5 -186 32 -430 47 -430 5 0 6 10
4 23 -12 53 -24 217 -31 412 -9 245 -27 395 -47 395 -5 0 -7 -8 -4 -17z"/>
<path d="M3764 1264 c-46 -103 -102 -362 -92 -425 2 -13 10 17 17 66 17 121
58 287 87 354 13 30 22 56 19 59 -2 3 -17 -21 -31 -54z"/>
<path d="M7763 1162 c2 -29 7 -55 11 -59 11 -11 6 -24 -6 -17 -7 4 -6 -1 3
-12 13 -16 16 -46 17 -169 0 -170 1 -182 12 -140 13 53 10 276 -5 347 -19 93
-36 120 -32 50z"/>
<path d="M4775 1190 c-3 -5 5 -22 19 -37 15 -15 26 -33 26 -40 0 -6 4 -13 8
-15 31 -12 159 -249 203 -373 63 -182 105 -242 54 -78 -44 141 -111 279 -201
415 -87 132 -99 145 -109 128z"/>
<path d="M6050 1091 c-65 -92 -250 -556 -237 -594 5 -14 47 65 47 88 0 17 39
132 63 186 8 19 25 59 37 89 12 30 44 99 72 154 50 100 58 132 18 77z"/>
<path d="M7388 1066 c12 -15 19 -33 15 -40 -3 -6 -2 -8 2 -3 5 4 22 -5 39 -20
l29 -28 -21 30 c-31 43 -44 58 -67 75 -17 13 -17 11 3 -14z"/>
<path d="M7730 1066 c0 -2 8 -10 18 -17 15 -13 16 -12 3 4 -13 16 -21 21 -21
13z"/>
<path d="M7395 980 c10 -11 20 -20 23 -20 3 0 -3 9 -13 20 -10 11 -20 20 -23
20 -3 0 3 -9 13 -20z"/>
<path d="M7395 950 c10 -11 20 -20 23 -20 3 0 -3 9 -13 20 -10 11 -20 20 -23
20 -3 0 3 -9 13 -20z"/>
<path d="M7690 966 c0 -2 8 -10 18 -17 15 -13 16 -12 3 4 -13 16 -21 21 -21
13z"/>
<path d="M3250 926 c0 -2 8 -10 18 -17 15 -13 16 -12 3 4 -13 16 -21 21 -21
13z"/>
<path d="M7715 900 c10 -11 20 -20 23 -20 3 0 -3 9 -13 20 -10 11 -20 20 -23
20 -3 0 3 -9 13 -20z"/>
<path d="M7680 906 c0 -2 8 -10 18 -17 15 -13 16 -12 3 4 -13 16 -21 21 -21
13z"/>
<path d="M3240 896 c0 -2 8 -10 18 -17 15 -13 16 -12 3 4 -13 16 -21 21 -21
13z"/>
<path d="M4855 880 c10 -11 20 -20 23 -20 3 0 -3 9 -13 20 -10 11 -20 20 -23
20 -3 0 3 -9 13 -20z"/>
<path d="M4890 846 c0 -2 8 -10 18 -17 15 -13 16 -12 3 4 -13 16 -21 21 -21
13z"/>
<path d="M7390 846 c0 -2 8 -10 18 -17 15 -13 16 -12 3 4 -13 16 -21 21 -21
13z"/>
<path d="M7670 846 c0 -2 8 -10 18 -17 15 -13 16 -12 3 4 -13 16 -21 21 -21
13z"/>
<path d="M5971 794 c0 -11 3 -14 6 -6 3 7 2 16 -1 19 -3 4 -6 -2 -5 -13z"/>
</g>
</svg>
