<?xml version="1.0" encoding="UTF-8"?>
<svg id="Layer_1" xmlns="http://www.w3.org/2000/svg" version="1.1" viewBox="0 0 19 19">
  <!-- Generator: Adobe Illustrator 29.8.2, SVG Export Plug-In . SVG Version: 2.1.1 Build 3)  -->
  <defs>
    <style>
      .st0 {
        fill: none;
        stroke: #588157;
        stroke-linecap: round;
        stroke-linejoin: round;
        stroke-width: 1.6px;
      }
    </style>
  </defs>
  <path class="st0" d="M15.04,13.46h1.58c.48,0,.79-.32.79-.79v-2.38c0-.71-.55-1.35-1.19-1.5-1.42-.4-3.56-.87-3.56-.87,0,0-1.03-1.11-1.74-1.82-.4-.32-.87-.55-1.43-.55H3.96c-.48,0-.87.32-1.11.71l-1.11,2.3c-.1.31-.16.63-.16.95v3.17c0,.47.32.79.79.79h1.58"/>
  <path class="st0" d="M5.54,15.04c.87,0,1.58-.71,1.58-1.58s-.71-1.58-1.58-1.58-1.58.71-1.58,1.58.71,1.58,1.58,1.58Z"/>
  <path class="st0" d="M7.12,13.46h4.75"/>
  <path class="st0" d="M13.46,15.04c.87,0,1.58-.71,1.58-1.58s-.71-1.58-1.58-1.58-1.58.71-1.58,1.58.71,1.58,1.58,1.58Z"/>
</svg>