<?xml version="1.0" standalone="no"?>
<!DOCTYPE svg PUBLIC "-//W3C//DTD SVG 20010904//EN"
 "http://www.w3.org/TR/2001/REC-SVG-20010904/DTD/svg10.dtd">
<svg version="1.0" xmlns="http://www.w3.org/2000/svg"
 width="1024.000000pt" height="1024.000000pt" viewBox="0 0 1024.000000 1024.000000"
 preserveAspectRatio="xMidYMid meet">

<g transform="translate(0.000000,1024.000000) scale(0.100000,-0.100000)"
fill="#000000" stroke="none">
<path d="M2120 10233 c0 -12 102 -127 179 -201 73 -71 216 -172 314 -222 42
-22 60 -40 39 -40 -4 0 -41 -25 -82 -56 -166 -124 -450 -300 -616 -383 -315
-157 -585 -222 -858 -207 l-120 6 35 -36 c18 -21 52 -53 73 -73 22 -20 44 -41
50 -46 21 -20 152 -113 271 -193 111 -75 333 -194 422 -226 21 -8 83 -30 138
-50 130 -47 268 -82 380 -96 49 -6 91 -13 94 -16 4 -3 -81 -118 -144 -193
-230 -279 -487 -477 -768 -596 l-117 -49 48 -22 c129 -59 368 -124 527 -143
114 -14 277 -14 384 -1 46 6 86 9 88 6 3 -3 -2 -12 -11 -22 -35 -35 -112 -164
-172 -288 -69 -144 -132 -337 -163 -500 -26 -131 -38 -280 -24 -275 6 2 36 34
67 71 74 88 163 162 278 234 86 53 200 114 214 114 4 0 4 -15 0 -32 -21 -100
-36 -269 -36 -395 0 -158 -1 -156 65 -129 40 17 40 19 20 -74 -60 -284 -91
-697 -66 -870 23 -151 89 -323 194 -498 19 -31 69 -113 110 -182 71 -119 175
-324 274 -545 137 -304 221 -413 378 -491 74 -37 203 -64 302 -64 62 0 53 22
113 -265 113 -533 121 -611 126 -1215 3 -267 1 -519 -3 -560 l-8 -75 -101 -26
c-95 -25 -156 -45 -314 -106 -82 -32 -240 -108 -305 -147 -60 -36 -227 -159
-245 -181 -7 -8 -65 -31 -129 -51 -235 -74 -464 -152 -761 -260 -113 -41 -216
-79 -230 -84 -55 -20 -357 -132 -390 -145 -87 -35 -182 -71 -265 -100 -151
-54 -435 -160 -530 -198 l-90 -36 1609 0 c1528 -1 1608 0 1601 16 -77 183
-124 378 -132 550 l-6 133 79 76 c43 41 100 94 127 116 l47 40 0 -32 c0 -31
-36 -273 -47 -317 -3 -13 -1 -23 5 -23 13 0 65 223 91 390 26 162 59 464 67
613 4 64 11 117 16 117 4 0 8 -7 8 -15 0 -9 11 -28 24 -42 13 -14 30 -37 38
-52 15 -29 79 -123 89 -131 4 -3 15 -19 25 -36 52 -84 80 -128 90 -138 6 -7
19 -27 29 -46 9 -18 37 -61 61 -96 24 -35 44 -68 44 -73 0 -6 3 -11 8 -11 4 0
16 -17 27 -37 11 -21 30 -52 42 -69 13 -17 23 -36 23 -42 0 -6 4 -12 8 -14 9
-4 72 -96 72 -106 0 -4 18 -31 40 -60 22 -29 40 -57 40 -62 0 -6 3 -10 8 -10
4 0 18 -18 32 -40 14 -22 28 -40 32 -40 5 0 8 -5 8 -12 0 -9 131 -192 149
-208 3 -3 18 -21 33 -42 15 -20 34 -42 41 -50 7 -7 24 -29 37 -48 13 -19 30
-41 37 -48 7 -8 26 -30 41 -50 15 -20 40 -51 57 -69 l30 -33 868 0 c769 0 867
2 853 15 -8 8 -17 15 -20 15 -3 0 -46 29 -95 65 -48 36 -93 65 -100 65 -6 0
-11 4 -11 8 0 4 -12 15 -27 24 -16 9 -37 24 -48 33 -11 9 -81 58 -155 111 -74
52 -149 106 -167 119 -18 14 -36 25 -42 25 -5 0 -11 3 -13 8 -5 13 -85 72 -97
72 -6 0 -11 3 -11 8 0 4 -18 18 -40 32 -22 14 -40 28 -40 32 0 5 -4 8 -10 8
-9 0 -31 16 -64 45 -6 6 -27 22 -46 35 -19 13 -37 27 -40 30 -3 4 -32 25 -65
47 -33 23 -70 50 -82 62 -12 12 -24 21 -27 21 -4 0 -56 38 -207 154 -95 73
-128 98 -194 147 -33 24 -73 56 -90 71 -16 16 -34 28 -38 28 -4 0 -18 10 -30
23 -13 12 -43 38 -66 57 -24 19 -53 44 -65 55 -12 11 -39 33 -61 50 -22 16
-123 113 -225 215 -225 224 -295 302 -338 373 -9 15 -20 27 -24 27 -4 0 -8 5
-8 11 0 6 -9 24 -21 40 -27 39 -70 117 -110 201 -17 37 -36 65 -40 62 -5 -3
-6 2 -3 11 6 14 -11 61 -27 75 -9 9 -66 171 -93 265 -137 488 -222 1115 -267
1965 -24 449 6 1597 46 1775 26 116 153 604 160 614 14 24 23 8 35 -64 7 -41
16 -75 20 -75 4 0 13 -27 20 -60 11 -54 30 -74 30 -32 0 22 75 251 135 412 50
135 132 313 146 318 5 2 9 9 9 15 0 7 9 18 21 25 16 10 19 20 15 40 -5 20 -4
23 4 12 6 -10 13 -11 18 -5 11 16 66 96 77 114 6 9 21 30 35 47 14 17 34 44
45 59 27 38 66 87 85 105 9 8 40 44 70 80 125 148 327 353 340 345 6 -3 10 6
11 22 l1 28 8 -25 c4 -14 9 -99 10 -190 1 -91 5 -208 9 -260 l6 -95 16 35 c96
204 196 379 258 450 12 14 57 65 99 115 86 100 306 321 462 465 57 52 118 110
136 128 39 39 48 40 40 6 -4 -14 -9 -62 -12 -107 -3 -45 -11 -125 -19 -177
-36 -235 -71 -577 -61 -587 9 -9 34 16 42 40 10 37 56 129 91 184 18 29 33 57
33 63 0 6 6 13 13 16 7 2 31 29 53 59 21 30 42 55 47 55 4 0 7 6 7 13 0 12 10
24 103 132 152 174 312 332 557 551 30 27 58 53 62 58 5 8 78 -135 78 -156 0
-4 4 -16 9 -26 5 -9 28 -57 51 -107 70 -149 235 -476 269 -534 18 -29 45 -81
60 -115 24 -50 117 -246 199 -416 27 -55 116 -214 123 -220 3 -3 13 -18 22
-35 27 -54 109 -157 117 -149 4 5 -1 65 -11 134 -31 216 -39 327 -38 549 0
171 3 212 12 197 7 -10 42 -59 80 -108 37 -49 67 -93 67 -98 0 -6 4 -10 8 -10
4 0 15 -12 24 -27 14 -25 24 -38 67 -89 4 -6 26 -35 47 -65 22 -30 44 -61 51
-69 37 -47 88 -118 153 -215 41 -60 80 -116 87 -123 6 -6 15 -21 18 -32 3 -11
10 -20 14 -20 4 0 13 -12 20 -27 7 -15 21 -33 32 -41 10 -7 19 -21 19 -31 0
-9 4 -21 9 -26 14 -16 61 -163 59 -187 -2 -30 34 -168 43 -162 4 2 7 -2 6 -9
0 -6 1 -40 1 -74 2 -66 16 -83 27 -33 4 16 11 32 16 35 5 4 9 13 9 22 0 17
107 233 176 354 66 117 167 280 240 388 35 51 64 95 64 98 0 2 19 30 43 61 41
53 170 239 226 324 13 21 26 36 28 35 9 -9 -81 -502 -143 -780 -20 -87 -32
-162 -28 -165 4 -4 9 -2 11 4 2 6 50 81 106 166 56 85 138 210 181 279 44 68
94 147 113 176 18 28 33 56 33 62 0 6 3 11 8 11 4 0 18 20 32 45 13 24 30 47
36 49 7 3 25 -25 44 -65 17 -38 33 -69 36 -69 2 0 4 477 4 1060 l0 1060 -4060
0 c-2233 0 -4060 -3 -4060 -7z m5367 -625 c-3 -8 -6 -5 -6 6 -1 11 2 17 5 13
3 -3 4 -12 1 -19z m10 -135 c-3 -10 -5 -2 -5 17 0 19 2 27 5 18 2 -10 2 -26 0
-35z m30 -185 c-3 -8 -6 -5 -6 6 -1 11 2 17 5 13 3 -3 4 -12 1 -19z m-2183
-573 c-4 -8 -8 -15 -10 -15 -2 0 -4 7 -4 15 0 8 4 15 10 15 5 0 7 -7 4 -15z
m-672 -967 c-7 -7 -12 -8 -12 -2 0 14 12 26 19 19 2 -3 -1 -11 -7 -17z m-425
-620 c-3 -8 -6 -5 -6 6 -1 11 2 17 5 13 3 -3 4 -12 1 -19z m-1014 -462 c98
-65 153 -138 172 -227 4 -19 13 -47 20 -64 18 -41 131 -307 160 -375 32 -75
90 -243 109 -310 8 -30 22 -80 31 -110 9 -30 29 -104 46 -165 47 -179 127
-433 141 -451 4 -6 13 -72 19 -145 6 -74 16 -191 23 -261 11 -119 7 -159 -10
-105 -4 12 -9 24 -13 27 -3 3 -18 30 -34 60 -33 66 -48 92 -107 180 -53 79
-169 232 -184 242 -6 4 -11 36 -11 70 0 48 7 77 27 120 39 83 44 106 21 110
-15 2 -17 9 -12 38 6 31 7 32 8 7 1 -24 24 -47 36 -35 3 3 9 28 15 57 17 93
-9 162 -151 392 -43 71 -79 134 -79 139 0 6 -4 10 -8 10 -4 0 -24 29 -43 65
-18 36 -37 65 -41 65 -5 0 -8 5 -8 12 0 27 -170 265 -207 291 -49 34 -108 36
-147 6 -92 -72 -165 -417 -166 -782 0 -134 16 -292 34 -332 8 -16 22 -49 31
-72 10 -23 21 -40 25 -38 4 2 10 66 13 142 13 281 71 451 172 499 86 41 184
143 201 208 3 14 9 26 13 26 8 0 151 -236 151 -250 0 -5 -5 -10 -11 -10 -5 0
-8 -4 -4 -9 9 -16 -24 -40 -81 -58 -99 -31 -147 -86 -199 -232 -44 -121 -58
-221 -52 -371 10 -219 63 -349 216 -522 38 -44 66 -34 40 14 -10 19 -9 20 12
15 13 -3 44 -9 69 -13 101 -15 257 -108 370 -218 78 -77 97 -99 106 -128 4
-10 12 -18 19 -18 16 0 19 -26 40 -300 8 -107 18 -221 22 -253 l6 -59 -129 6
c-146 7 -274 25 -274 37 0 5 -10 8 -22 7 -25 -2 -84 33 -134 79 -58 54 -159
225 -213 361 -47 117 -166 364 -218 449 -21 34 -68 111 -104 170 -220 358
-279 569 -250 895 28 315 45 436 97 673 21 96 37 149 86 280 13 33 71 121 97
145 60 57 74 62 142 57 55 -3 75 -10 122 -41z m-242 -509 c-10 -9 -11 -8 -5 6
3 10 9 15 12 12 3 -3 0 -11 -7 -18z m549 -541 c0 -6 -7 -1 -15 10 -8 10 -15
23 -15 28 0 6 7 1 15 -10 8 -10 15 -23 15 -28z m-190 -70 c0 -3 -4 -8 -10 -11
-5 -3 -10 -1 -10 4 0 6 5 11 10 11 6 0 10 -2 10 -4z m-473 -228 c-1 -40 -3
-10 -3 67 0 77 1 110 3 73 2 -37 2 -100 0 -140z m310 -290 c-2 -13 -4 -5 -4
17 -1 22 1 32 4 23 2 -10 2 -28 0 -40z m10 -90 c-3 -8 -6 -5 -6 6 -1 11 2 17
5 13 3 -3 4 -12 1 -19z m154 -330 c8 -15 8 -18 0 -14 -6 4 -16 16 -22 28 -8
15 -8 18 0 14 6 -4 16 -16 22 -28z m616 -270 c-3 -7 -5 -2 -5 12 0 14 2 19 5
13 2 -7 2 -19 0 -25z m251 -1763 c0 -16 -2 -15 -8 5 -4 14 -8 34 -8 45 0 16 2
15 8 -5 4 -14 8 -34 8 -45z"/>
<path d="M5615 7502 c-163 -92 -329 -225 -503 -402 -116 -118 -205 -239 -271
-368 -45 -89 -13 -59 71 65 47 70 95 137 105 148 10 11 33 38 52 60 133 158
367 365 518 458 89 55 90 56 73 56 -8 0 -28 -8 -45 -17z"/>
<path d="M5745 7485 c-85 -30 -214 -108 -315 -189 -164 -132 -401 -389 -479
-519 -32 -52 -20 -57 23 -9 59 65 142 117 299 187 71 31 232 66 332 72 65 3
146 0 232 -11 217 -26 628 -116 648 -141 12 -15 129 -95 139 -95 9 0 140 -92
144 -102 2 -4 8 -8 14 -8 5 0 31 -16 56 -36 26 -19 99 -74 162 -122 63 -47
121 -92 128 -99 7 -7 18 -13 23 -13 5 0 8 -5 7 -12 -2 -6 8 -15 22 -19 45 -13
-78 -10 -272 7 -143 13 -256 15 -523 11 -339 -6 -438 -13 -590 -43 -230 -45
-358 -88 -425 -143 -49 -41 -30 -50 27 -13 138 87 431 143 843 161 350 15 963
-19 982 -54 5 -8 16 -15 23 -15 8 0 15 -4 15 -10 0 -5 21 -24 48 -41 26 -18
53 -41 60 -51 7 -10 20 -18 28 -18 8 0 14 -4 14 -8 0 -5 20 -23 44 -40 25 -18
63 -49 86 -70 23 -20 56 -45 73 -54 l32 -17 -27 -1 c-14 0 -73 11 -130 24
-397 94 -997 139 -1555 116 -240 -10 -457 -28 -588 -51 -33 -6 -78 -13 -100
-16 -22 -3 -53 -13 -70 -21 l-30 -16 40 -9 c22 -4 74 -14 115 -20 57 -9 77
-17 85 -32 86 -169 335 -389 560 -496 161 -76 362 -104 682 -96 227 5 337 20
508 68 109 31 305 114 305 131 0 12 -4 11 -96 -27 -114 -47 -265 -89 -421
-116 -107 -18 -165 -22 -358 -22 -393 1 -541 35 -755 178 -114 75 -195 145
-261 224 -44 53 -106 158 -97 166 1 1 134 6 294 10 l290 7 17 -79 c52 -239
227 -419 427 -439 198 -19 358 159 405 449 6 38 7 38 43 33 332 -47 449 -70
487 -94 281 -181 340 -190 169 -26 l-97 93 34 5 c19 3 76 7 127 10 l93 6 52
-35 c44 -29 59 -34 88 -29 46 8 119 35 119 44 0 4 13 10 29 13 16 3 35 12 42
19 8 8 42 33 76 57 34 24 65 52 68 61 9 29 7 141 -4 196 -11 56 -44 147 -67
182 -14 21 -13 23 16 40 126 70 259 181 302 250 12 21 24 39 27 42 12 10 70
138 95 208 38 106 33 190 -9 148 -8 -8 -15 -18 -15 -22 0 -11 -82 -117 -103
-134 -36 -28 -88 -85 -115 -125 -15 -22 -29 -42 -32 -45 -3 -3 -31 -36 -64
-73 -32 -37 -61 -65 -64 -62 -3 3 6 18 21 33 15 15 45 63 67 106 33 64 39 81
28 91 -7 6 -65 24 -128 39 -279 65 -758 191 -910 240 -25 8 -81 24 -125 37
-44 12 -123 34 -175 49 -52 16 -147 42 -210 60 -63 17 -144 40 -180 50 -114
33 -422 108 -509 124 -125 24 -232 21 -316 -9z m2641 -653 c-17 -16 -18 -16
-5 5 7 12 15 20 18 17 3 -2 -3 -12 -13 -22z m-1576 -22 c8 -5 11 -10 5 -10 -5
0 -17 5 -25 10 -8 5 -10 10 -5 10 6 0 17 -5 25 -10z m177 -46 c-3 -3 -12 -4
-19 -1 -8 3 -5 6 6 6 11 1 17 -2 13 -5z m1174 -127 c-10 -9 -11 -8 -5 6 3 10
9 15 12 12 3 -3 0 -11 -7 -18z m-41 -32 c-7 -8 -17 -15 -23 -15 -6 0 -2 7 9
15 25 19 30 19 14 0z m-493 -1 c-3 -3 -12 -4 -19 -1 -8 3 -5 6 6 6 11 1 17 -2
13 -5z"/>
<path d="M5327 5903 c-5 -8 40 -75 98 -143 42 -50 183 -185 233 -223 65 -50
190 -122 198 -114 3 3 -19 19 -48 35 -29 17 -91 62 -138 99 -77 63 -118 106
-281 293 -31 36 -58 59 -62 53z"/>
<path d="M7360 5403 c-109 -56 -318 -112 -531 -143 -132 -19 -180 -22 -334
-17 -180 6 -343 29 -442 62 -25 9 -48 14 -50 11 -19 -19 253 -102 403 -123 73
-10 191 -16 304 -17 l185 0 130 42 c71 24 173 65 225 91 95 48 210 117 210
126 0 12 -40 -1 -100 -32z"/>
<path d="M7494 5422 c-123 -71 -194 -115 -191 -119 6 -5 154 67 201 99 43 30
34 46 -10 20z"/>
<path d="M5880 5410 c0 -5 5 -10 11 -10 5 0 7 5 4 10 -3 6 -8 10 -11 10 -2 0
-4 -4 -4 -10z"/>
<path d="M7510 5386 c-16 -16 -142 -82 -205 -108 -186 -77 -461 -178 -485
-178 -10 0 -11 -3 -4 -10 27 -27 243 23 394 92 84 38 235 129 280 168 19 16
38 30 43 30 4 0 7 5 7 10 0 14 -13 12 -30 -4z"/>
<path d="M7712 3947 c-51 -84 -103 -184 -117 -222 -33 -93 -34 -205 -4 -270
38 -82 197 -234 231 -222 12 4 57 -22 86 -50 7 -7 21 -13 30 -14 9 0 31 -9 47
-20 17 -11 38 -22 48 -25 9 -4 17 -10 17 -15 0 -5 6 -9 13 -9 8 0 22 -9 32
-20 10 -11 24 -20 32 -20 7 0 13 -3 13 -8 0 -4 21 -18 48 -32 26 -13 49 -27
52 -31 3 -3 23 -16 45 -27 282 -144 325 -157 500 -157 143 0 194 13 300 79 60
37 270 192 311 230 75 69 105 100 125 128 13 18 26 35 29 38 22 19 50 73 50
98 0 38 -57 97 -120 124 -54 24 -112 19 -204 -17 -95 -38 -262 -76 -356 -82
-65 -4 -112 0 -200 17 -63 12 -126 27 -140 32 -40 15 -271 66 -361 79 -119 17
-269 7 -349 -24 -36 -14 -93 -31 -127 -37 -42 -9 -63 -18 -66 -29 -7 -29 -37
92 -37 148 0 56 27 168 54 226 8 16 26 59 41 95 15 36 40 91 56 122 57 113 11
64 -79 -85z m3 -557 c3 -5 1 -10 -4 -10 -6 0 -11 5 -11 10 0 6 2 10 4 10 3 0
8 -4 11 -10z m1662 4 c-3 -3 -12 -4 -19 -1 -8 3 -5 6 6 6 11 1 17 -2 13 -5z
m96 -11 c-7 -2 -19 -2 -25 0 -7 3 -2 5 12 5 14 0 19 -2 13 -5z m-1048 -101
c-3 -3 -11 0 -18 7 -9 10 -8 11 6 5 10 -3 15 -9 12 -12z m-610 -13 c11 -17 -1
-21 -15 -4 -8 9 -8 15 -2 15 6 0 14 -5 17 -11z"/>
<path d="M8785 2464 l-70 -13 79 4 c43 2 83 8 89 14 14 14 -5 13 -98 -5z"/>
<path d="M8903 2378 c-65 -11 -172 -12 -354 -3 -122 6 -168 5 -173 -4 -4 -6
-4 -11 1 -11 152 -6 205 -9 288 -19 83 -9 118 -9 209 5 78 11 136 14 204 9 66
-5 93 -4 88 3 -12 19 -190 33 -263 20z"/>
<path d="M8180 2331 c-63 -17 -137 -46 -192 -75 -14 -8 -64 -34 -110 -57 -46
-24 -85 -46 -88 -49 -3 -3 -39 -21 -80 -39 -124 -55 -202 -96 -345 -183 -49
-30 -115 -67 -145 -82 -95 -47 -132 -74 -123 -89 4 -6 0 -8 -10 -4 -15 6 -47
-25 -47 -45 0 -17 90 -6 200 23 172 46 174 47 320 78 203 44 387 69 607 82
171 11 219 10 353 -4 144 -15 173 -15 411 0 215 14 279 15 395 5 142 -12 409
-58 499 -86 28 -9 61 -16 75 -16 l25 1 -23 19 c-21 17 -21 19 -5 29 16 9 11
17 -43 68 -33 32 -76 71 -95 87 -19 16 -55 48 -80 70 -53 47 -71 62 -119 96
-19 13 -46 34 -59 47 -14 12 -68 43 -120 70 l-96 48 -140 -1 c-119 -1 -155 -6
-240 -29 -55 -15 -113 -30 -130 -32 -36 -5 -210 24 -342 56 -144 36 -160 37
-253 12z m647 -397 c-3 -3 -12 -4 -19 -1 -8 3 -5 6 6 6 11 1 17 -2 13 -5z"/>
<path d="M7805 1291 c-3 -6 -14 -11 -23 -11 -25 -1 -55 -46 -47 -71 9 -27 90
-104 135 -130 19 -10 42 -23 50 -28 172 -106 183 -111 299 -142 99 -27 403
-37 576 -20 164 16 313 41 344 57 14 8 34 14 44 14 9 0 17 5 17 11 0 5 20 19
44 30 25 11 71 43 103 72 71 64 89 84 104 120 10 23 9 31 -5 46 -9 9 -13 20
-10 24 14 14 -97 17 -761 22 -385 3 -737 8 -781 11 -54 3 -84 2 -89 -5z m1308
-58 c-7 -2 -19 -2 -25 0 -7 3 -2 5 12 5 14 0 19 -2 13 -5z"/>
<path d="M10193 378 c-64 -98 -160 -214 -251 -300 l-82 -78 185 0 c141 0 187
3 191 13 2 7 3 107 2 221 l-3 209 -42 -65z"/>
</g>
</svg>
