<?xml version="1.0" encoding="UTF-8"?>
<svg id="Layer_1" xmlns="http://www.w3.org/2000/svg" version="1.1" xmlns:xlink="http://www.w3.org/1999/xlink" viewBox="0 0 14 15">
  <!-- Generator: Adobe Illustrator 29.8.2, SVG Export Plug-In . SVG Version: 2.1.1 Build 3)  -->
  <defs>
    <style>
      .st0 {
        fill: none;
      }

      .st1 {
        fill: #588157;
        stroke: #588157;
        stroke-linecap: round;
        stroke-linejoin: round;
        stroke-width: 2px;
      }

      .st2 {
        clip-path: url(#clippath);
      }
    </style>
    <clipPath id="clippath">
      <rect class="st0" x=".93" y=".45" width="12.52" height="14.11"/>
    </clipPath>
  </defs>
  <g class="st2">
    <path class="st1" d="M6.94,1.79s.06-.1.1-.13.09-.05.15-.05.1.02.15.05c.04.03.08.07.1.13l1.2,2.75c.08.18.2.34.34.46s.31.2.49.23l2.69.44c.05,0,.1.03.14.07s.07.09.08.14c.02.06.02.11,0,.17-.01.06-.04.11-.08.15l-1.95,2.14c-.13.14-.22.32-.28.51-.06.19-.07.4-.04.6l.46,3.02c0,.06,0,.12-.02.17s-.05.1-.09.14c-.04.03-.09.05-.14.06-.05,0-.1,0-.15-.04l-2.41-1.43c-.16-.09-.34-.14-.51-.14s-.36.05-.51.14l-2.41,1.43s-.1.04-.15.04-.1-.02-.14-.06c-.04-.03-.07-.08-.09-.14-.02-.05-.02-.11-.02-.17l.46-3.02c.03-.2.02-.4-.04-.6-.06-.19-.15-.37-.28-.51l-1.95-2.14s-.06-.09-.08-.15c0-.06,0-.12,0-.17.02-.06.05-.1.09-.14s.09-.06.14-.07l2.69-.44c.18-.03.35-.11.49-.23.15-.12.26-.28.34-.46l1.2-2.75h.03Z"/>
  </g>
</svg>