<?xml version="1.0" encoding="UTF-8" ?>
<!DOCTYPE svg PUBLIC "-//W3C//DTD SVG 1.1//EN" "http://www.w3.org/Graphics/SVG/1.1/DTD/svg11.dtd">
<svg width="1000pt" height="1000pt" viewBox="0 0 1000 1000" version="1.1" xmlns="http://www.w3.org/2000/svg">
<g id="#203e2fff">
<path fill="#203e2f" opacity="1.00" d=" M 407.07 343.44 C 454.17 339.77 501.65 345.79 547.10 358.26 C 585.19 368.56 622.14 383.59 655.98 403.97 C 672.48 412.63 689.00 422.30 701.99 435.78 C 745.38 440.33 788.66 446.82 831.00 457.48 C 852.91 462.91 874.58 469.60 895.22 478.82 C 898.84 480.35 902.44 481.96 905.49 484.52 C 911.40 490.98 913.80 499.65 916.28 507.84 C 919.51 519.17 922.05 530.67 924.53 542.18 C 924.93 544.43 925.70 546.66 925.42 548.98 C 924.92 561.72 924.16 574.67 920.10 586.86 C 917.49 592.79 911.48 596.64 905.02 596.53 C 895.78 596.34 886.54 596.44 877.31 596.24 C 875.86 601.74 874.79 607.37 872.58 612.64 C 864.13 632.94 847.16 649.55 826.62 657.44 C 814.54 661.42 801.70 664.24 788.93 662.61 C 775.54 660.68 762.00 657.02 750.97 648.86 C 739.13 641.25 729.91 630.08 723.42 617.68 C 719.78 610.59 717.92 602.81 716.26 595.07 C 575.92 594.05 435.57 592.95 295.24 591.95 C 293.48 600.44 291.72 609.07 287.81 616.89 C 279.78 633.25 266.27 646.77 249.90 654.80 C 242.76 658.42 234.89 660.15 227.12 661.80 C 218.14 663.57 208.82 663.48 199.87 661.60 C 192.43 659.97 184.91 658.26 178.07 654.79 C 159.73 645.75 144.82 629.80 137.53 610.65 C 135.00 604.21 134.24 597.04 132.18 590.64 C 125.72 590.58 119.10 591.22 112.83 589.24 C 106.42 588.28 101.05 583.61 98.21 577.95 C 97.65 575.61 97.05 573.28 96.57 570.93 C 93.83 545.73 92.35 520.32 93.61 494.98 C 94.38 481.25 95.94 467.52 99.30 454.16 C 101.88 442.94 105.15 431.48 112.13 422.11 C 115.22 417.11 120.64 414.35 125.57 411.49 C 149.56 398.26 176.89 393.44 202.00 382.97 C 208.64 380.28 214.51 376.08 221.05 373.19 C 233.75 367.41 247.24 363.61 260.80 360.45 C 289.74 353.38 319.37 349.64 348.99 346.91 C 368.31 345.18 387.68 344.06 407.07 343.44 M 367.01 359.00 C 335.21 361.33 303.42 364.80 272.19 371.37 C 252.59 375.74 232.73 380.95 215.43 391.52 C 208.49 395.25 201.06 397.97 193.61 400.51 C 170.94 408.20 147.16 413.86 126.57 426.56 C 124.15 427.77 122.80 430.25 121.37 432.42 C 116.90 439.96 114.28 448.40 112.19 456.86 C 108.16 474.27 106.88 492.19 106.71 510.02 C 106.54 530.69 107.92 551.37 110.24 571.89 C 111.95 576.06 117.04 577.11 121.08 577.05 C 126.96 576.97 132.97 577.47 138.76 576.98 C 139.60 553.47 152.45 530.89 172.03 517.92 C 186.39 508.17 204.21 503.81 221.46 505.48 C 221.08 507.76 220.35 509.96 219.91 512.23 C 202.21 511.55 184.12 516.96 170.40 528.35 C 166.79 531.76 163.23 535.24 160.01 539.03 C 150.24 551.75 144.82 567.87 145.96 583.96 C 145.93 598.34 151.85 612.16 160.40 623.51 C 164.06 627.56 167.90 631.46 172.04 635.04 C 180.06 640.94 189.14 645.59 198.93 647.68 C 207.67 649.70 216.75 649.30 225.60 648.46 C 247.53 644.59 267.19 629.58 276.23 609.18 C 280.81 598.91 283.19 587.60 282.71 576.35 C 284.87 576.04 287.00 575.50 289.18 575.20 C 289.20 575.93 289.24 577.37 289.26 578.09 C 290.71 578.78 292.46 578.14 294.03 578.38 C 389.68 579.14 485.32 579.80 580.97 580.54 C 627.56 581.04 674.17 581.00 720.76 581.69 C 721.01 570.47 723.04 559.07 727.90 548.83 C 727.95 554.50 726.87 560.48 729.22 565.86 C 729.46 568.65 729.38 571.47 728.54 574.16 C 727.26 586.48 729.98 598.88 734.89 610.17 C 738.18 617.12 743.03 623.16 747.92 629.04 C 756.84 637.08 767.18 644.05 778.94 647.04 C 792.75 650.25 807.70 650.15 821.02 644.95 C 844.34 636.28 862.21 613.95 864.70 589.08 C 865.21 579.81 865.25 570.35 862.39 561.42 C 858.31 546.87 848.62 534.33 836.62 525.38 C 823.24 515.69 806.35 511.38 789.94 513.15 C 790.39 510.46 791.03 507.81 791.91 505.23 C 817.43 503.62 843.28 515.98 857.84 537.03 C 867.25 550.20 872.10 566.47 871.63 582.63 C 883.32 582.86 895.08 583.04 906.77 582.87 C 909.65 578.55 909.73 573.12 910.59 568.15 C 911.30 561.13 911.74 554.08 912.00 547.03 C 909.98 537.29 907.92 527.56 905.31 517.97 C 903.12 510.43 901.18 502.66 897.25 495.80 C 896.46 493.82 894.29 493.31 892.58 492.47 C 877.51 485.48 861.81 479.93 845.89 475.21 C 796.54 460.95 745.50 453.85 694.53 448.48 C 690.64 442.50 684.93 438.02 679.28 433.78 C 669.85 426.87 659.65 421.08 649.27 415.72 C 614.49 394.75 576.35 379.64 537.14 369.29 C 498.33 359.21 458.07 354.52 417.97 356.29 C 401.00 357.41 383.98 357.68 367.01 359.00 Z" />
<path fill="#203e2f" opacity="1.00" d=" M 259.90 520.75 C 266.02 525.45 271.41 531.11 275.84 537.42 C 267.56 536.53 261.08 528.76 259.90 520.75 Z" />
<path fill="#203e2f" opacity="1.00" d=" M 181.50 534.38 C 191.98 526.64 205.34 523.79 218.17 523.93 C 218.06 525.99 218.01 528.06 218.02 530.14 C 211.74 530.33 205.30 530.25 199.31 532.45 C 198.75 533.70 199.51 535.04 199.75 536.29 C 202.93 546.96 206.62 557.47 210.06 568.06 C 211.03 570.52 208.72 573.55 206.08 573.27 C 203.66 572.49 201.91 570.55 200.04 568.95 C 191.86 562.14 183.60 555.43 175.57 548.44 C 173.31 549.84 172.04 552.37 170.59 554.53 C 166.02 562.40 163.11 571.52 163.32 580.68 C 174.53 580.81 185.75 580.65 196.97 580.67 C 199.29 580.84 202.27 579.91 204.00 581.98 C 205.55 583.47 205.30 586.32 203.35 587.35 C 192.83 594.45 181.87 600.97 171.49 608.22 C 172.37 611.31 175.35 613.32 177.07 615.99 C 183.29 622.22 190.92 627.29 199.46 629.67 C 202.71 617.43 206.75 605.42 210.17 593.24 C 210.54 590.64 214.06 589.16 216.02 590.98 C 217.60 592.72 218.09 595.12 218.78 597.31 C 221.16 607.04 224.20 616.60 226.80 626.28 C 227.19 627.42 227.32 628.77 228.25 629.66 C 235.38 627.97 241.88 623.99 247.40 619.23 C 250.03 617.30 252.25 614.84 253.82 611.99 C 253.32 610.66 252.00 609.91 250.98 609.02 C 242.04 602.30 233.18 595.48 224.45 588.49 C 222.35 587.09 221.79 583.57 224.22 582.21 C 228.04 580.70 232.04 582.52 235.94 582.63 C 241.02 582.61 245.99 583.85 251.09 583.78 C 255.55 584.71 260.11 585.00 264.66 584.68 C 264.75 582.38 264.62 580.07 264.88 577.79 C 266.86 577.52 268.99 577.31 270.88 578.12 C 271.56 581.10 270.91 584.12 270.52 587.09 C 268.65 608.28 253.42 627.37 233.44 634.44 C 225.47 638.12 216.56 637.42 208.03 637.39 C 180.19 635.39 155.87 609.15 157.60 580.99 C 156.48 562.66 166.60 544.66 181.50 534.38 Z" />
<path fill="#203e2f" opacity="1.00" d=" M 775.56 528.35 C 780.83 526.31 786.33 524.35 792.07 524.61 C 797.29 524.78 802.60 524.08 807.75 525.15 C 818.73 527.49 829.42 532.63 837.01 541.06 C 844.13 547.28 848.46 556.01 851.38 564.85 C 854.14 572.61 853.42 580.94 853.26 589.01 C 852.04 597.09 848.87 604.78 844.75 611.79 C 835.61 625.59 820.50 635.63 803.89 637.36 C 798.25 637.34 792.57 637.70 786.95 637.07 C 768.95 633.80 752.64 621.58 745.17 604.77 C 741.39 596.11 739.24 586.44 740.04 576.99 C 740.80 576.89 742.30 576.68 743.05 576.58 C 743.80 576.73 745.31 577.05 746.07 577.21 C 746.12 578.39 746.21 579.57 746.35 580.76 C 758.91 580.81 771.47 580.58 784.03 580.69 C 786.46 580.49 788.22 583.20 787.47 585.41 C 787.24 587.29 785.29 588.02 783.93 588.98 C 777.85 592.41 772.28 596.65 766.36 600.34 C 762.47 603.14 758.01 605.12 754.37 608.24 C 759.94 618.76 770.67 625.40 781.47 629.66 C 782.74 629.06 782.73 627.40 783.26 626.28 C 785.02 619.81 787.06 613.44 788.96 607.01 C 790.74 602.02 791.57 596.70 793.77 591.86 C 795.32 589.21 799.52 589.90 800.30 592.86 C 803.76 605.08 807.18 617.33 810.58 629.57 L 811.12 629.86 C 820.68 627.04 829.18 621.17 835.66 613.64 C 836.20 612.92 837.43 611.58 836.12 610.91 C 826.95 603.72 817.65 596.68 808.45 589.52 C 805.74 588.05 804.25 584.14 807.15 582.02 C 810.73 581.03 814.35 582.19 817.92 582.60 C 827.88 582.79 837.69 585.16 847.67 584.66 C 848.24 574.74 845.91 564.58 841.07 555.91 C 839.99 554.50 838.91 551.21 836.63 552.59 C 826.69 559.31 817.14 566.60 807.10 573.17 C 804.43 575.27 800.55 572.00 801.65 568.96 C 805.18 560.43 808.79 551.90 812.30 543.35 C 813.50 540.33 815.11 537.44 815.80 534.24 C 815.35 533.95 814.44 533.38 813.99 533.09 C 803.52 529.47 792.03 529.34 781.43 532.51 C 785.03 544.59 789.38 556.82 792.98 569.05 C 793.69 571.53 790.40 574.28 788.12 572.87 C 784.96 571.44 783.10 568.19 779.87 566.89 C 778.31 560.18 779.20 553.16 778.60 546.33 C 776.52 545.58 774.65 547.24 772.68 547.66 C 768.67 548.93 763.36 550.39 760.05 546.91 C 758.24 544.25 759.08 540.83 759.92 537.97 C 764.48 533.86 769.78 530.47 775.56 528.35 Z" />
<path fill="#203e2f" opacity="1.00" d=" M 218.85 569.08 C 220.80 564.44 222.08 559.38 225.06 555.26 C 227.56 559.34 230.86 562.84 234.40 566.04 C 231.09 568.62 227.57 570.94 224.05 573.24 C 221.43 575.09 217.52 572.10 218.85 569.08 Z" />
</g>
<g id="#dad7cdff">
<path fill="#dad7cd" opacity="1.00" d=" M 367.01 359.00 C 383.98 357.68 401.00 357.41 417.97 356.29 C 458.07 354.52 498.33 359.21 537.14 369.29 C 576.35 379.64 614.49 394.75 649.27 415.72 C 659.65 421.08 669.85 426.87 679.28 433.78 C 684.93 438.02 690.64 442.50 694.53 448.48 C 745.50 453.85 796.54 460.95 845.89 475.21 C 861.81 479.93 877.51 485.48 892.58 492.47 C 894.29 493.31 896.46 493.82 897.25 495.80 C 901.18 502.66 903.12 510.43 905.31 517.97 C 907.92 527.56 909.98 537.29 912.00 547.03 C 911.74 554.08 911.30 561.13 910.59 568.15 C 909.73 573.12 909.65 578.55 906.77 582.87 C 895.08 583.04 883.32 582.86 871.63 582.63 C 872.10 566.47 867.25 550.20 857.84 537.03 C 843.28 515.98 817.43 503.62 791.91 505.23 C 792.77 500.98 794.78 496.79 794.77 492.48 C 787.17 492.36 779.57 492.52 771.97 492.42 C 773.96 482.93 777.28 473.68 778.92 464.15 C 769.65 463.99 760.38 464.07 751.11 464.10 L 750.38 464.45 C 747.61 473.64 745.49 483.03 742.96 492.30 C 739.21 492.69 735.40 492.27 731.63 492.50 C 730.71 493.54 730.54 494.97 730.17 496.25 C 728.40 503.54 726.22 510.73 724.61 518.05 C 727.85 519.45 732.03 518.21 735.63 518.61 C 733.33 528.73 730.47 538.77 727.90 548.83 C 723.04 559.07 721.01 570.47 720.76 581.69 C 674.17 581.00 627.56 581.04 580.97 580.54 C 485.32 579.80 389.68 579.14 294.03 578.38 C 292.46 578.14 290.71 578.78 289.26 578.09 C 289.24 577.37 289.20 575.93 289.18 575.20 C 305.91 570.79 321.72 562.25 334.14 550.13 C 335.16 549.20 335.88 547.48 334.88 546.28 C 329.27 538.44 323.52 530.70 317.81 522.93 L 317.01 522.72 C 308.85 529.51 299.79 535.97 289.09 537.83 C 284.71 538.41 280.09 538.91 275.84 537.42 C 271.41 531.11 266.02 525.45 259.90 520.75 C 256.74 497.73 277.81 474.64 301.09 476.07 C 310.52 476.46 318.83 482.44 323.94 490.11 C 324.58 491.56 326.01 490.46 326.72 489.75 C 335.85 481.86 344.96 473.93 354.08 466.03 C 355.01 465.18 356.19 463.94 355.43 462.62 C 349.57 450.61 337.67 442.48 325.01 439.02 C 311.12 435.46 296.17 436.04 282.58 440.62 C 253.32 450.66 229.74 475.65 221.46 505.48 C 204.21 503.81 186.39 508.17 172.03 517.92 C 152.45 530.89 139.60 553.47 138.76 576.98 C 132.97 577.47 126.96 576.97 121.08 577.05 C 117.04 577.11 111.95 576.06 110.24 571.89 C 107.92 551.37 106.54 530.69 106.71 510.02 C 106.88 492.19 108.16 474.27 112.19 456.86 C 114.28 448.40 116.90 439.96 121.37 432.42 C 122.80 430.25 124.15 427.77 126.57 426.56 C 147.16 413.86 170.94 408.20 193.61 400.51 C 201.06 397.97 208.49 395.25 215.43 391.52 C 232.73 380.95 252.59 375.74 272.19 371.37 C 303.42 364.80 335.21 361.33 367.01 359.00 M 341.04 362.31 C 317.59 364.65 294.13 367.69 271.22 373.32 C 257.93 376.04 244.55 379.26 232.36 385.37 C 227.88 387.85 222.77 390.79 221.18 396.01 C 220.23 398.99 222.50 401.61 224.08 403.90 C 231.39 412.92 242.59 417.57 253.50 420.59 C 267.05 424.03 281.04 425.11 294.91 426.56 C 323.91 429.30 352.99 431.18 382.06 433.03 C 405.67 434.63 429.33 435.62 452.90 437.88 C 523.59 443.42 594.33 448.38 665.06 453.47 C 671.60 453.62 678.68 453.80 684.57 450.54 C 687.20 449.12 687.59 445.49 685.80 443.26 C 681.52 436.31 673.51 433.51 667.19 428.94 C 669.86 432.45 674.91 435.03 675.71 439.98 C 675.84 442.41 673.05 443.38 671.13 443.85 C 662.51 445.56 653.70 444.17 645.07 443.35 C 579.57 438.46 514.08 433.38 448.58 428.54 C 440.25 407.72 431.84 386.89 423.83 365.97 L 424.32 365.44 C 466.14 364.69 508.27 369.03 548.53 380.65 C 564.94 385.14 580.57 391.95 596.08 398.85 C 610.58 405.51 624.89 412.91 637.71 422.46 C 642.67 421.11 647.87 421.09 652.98 420.97 C 653.46 421.18 654.42 421.62 654.90 421.84 C 643.62 415.22 632.41 408.16 620.59 402.41 C 601.55 392.99 581.76 385.12 561.57 378.53 C 516.36 363.89 468.68 355.99 421.09 357.98 C 394.36 358.41 367.65 359.80 341.04 362.31 M 124.26 435.25 C 119.22 445.22 115.99 456.08 114.15 467.08 C 114.01 469.94 112.93 473.05 114.11 475.80 C 116.54 477.01 119.10 475.22 121.30 474.26 C 130.47 469.10 138.49 462.19 146.53 455.46 C 148.57 453.94 148.37 450.93 146.45 449.40 C 140.40 443.82 134.96 437.58 128.62 432.31 C 126.59 431.08 125.08 433.77 124.26 435.25 M 692.05 457.88 C 681.53 496.55 671.82 535.47 661.47 574.20 L 661.77 575.36 C 672.15 575.63 682.57 575.39 692.97 575.48 C 694.78 575.94 695.07 573.79 695.42 572.58 C 701.64 548.73 707.87 524.89 714.08 501.04 C 717.68 486.58 721.95 472.23 725.12 457.70 C 714.46 457.19 703.71 457.64 693.01 457.48 L 692.05 457.88 M 846.14 483.41 C 846.13 485.12 847.69 486.19 848.73 487.37 C 852.88 491.24 857.67 494.35 862.12 497.86 C 870.13 504.08 879.26 508.65 888.66 512.38 C 891.69 513.55 894.73 514.93 898.01 515.28 C 899.56 515.63 901.68 514.81 901.59 512.93 C 901.25 507.48 898.72 502.46 896.35 497.64 C 895.02 494.35 890.99 494.16 888.25 492.67 C 875.06 486.73 860.73 482.55 846.14 483.41 M 382.17 500.90 C 381.65 498.44 383.64 496.13 382.97 493.80 C 375.00 493.29 366.97 493.74 358.97 493.58 C 357.56 493.43 355.60 493.56 355.46 495.39 C 349.22 519.24 343.01 543.11 336.78 566.97 C 336.12 569.69 335.07 572.36 334.99 575.20 C 343.97 575.61 352.99 575.28 361.99 575.36 C 363.63 575.11 363.72 573.24 364.16 572.02 C 367.08 561.00 369.84 549.94 372.87 538.95 C 375.08 531.80 379.34 524.10 387.00 521.84 C 392.23 520.08 397.69 521.60 402.83 522.83 L 403.47 522.42 C 406.74 513.82 409.43 504.99 412.54 496.32 C 413.03 495.28 413.29 493.54 411.80 493.22 C 401.60 488.88 389.49 493.09 382.17 500.90 M 574.29 511.39 C 566.70 520.21 562.07 531.46 560.83 543.01 C 559.82 552.04 562.29 561.71 568.66 568.38 C 573.92 573.80 581.51 576.16 588.86 576.84 C 604.12 578.22 619.84 574.16 632.56 565.64 C 632.61 565.26 632.70 564.50 632.74 564.12 C 630.97 557.70 628.81 551.38 627.00 544.97 C 631.73 544.14 636.68 544.94 641.50 544.64 C 645.37 535.70 648.20 525.96 647.33 516.13 C 646.88 508.44 642.39 501.27 636.06 497.00 C 629.87 492.93 622.31 491.45 614.98 491.64 C 599.35 491.69 584.25 499.49 574.29 511.39 M 418.07 493.99 C 414.48 504.41 412.45 515.38 409.33 525.98 C 406.89 536.76 402.26 547.72 404.88 558.93 C 406.66 567.30 413.73 573.91 421.97 575.86 C 436.69 579.47 453.36 576.94 465.45 567.45 C 474.85 560.42 480.60 549.49 483.39 538.27 C 487.16 523.57 491.24 508.92 494.74 494.16 L 493.97 493.65 C 485.01 493.52 476.05 493.57 467.10 493.65 L 466.25 494.04 C 461.99 509.33 458.24 524.76 454.10 540.09 C 452.28 546.85 444.18 551.23 437.63 548.32 C 433.95 546.89 434.08 542.19 434.82 538.99 C 438.64 524.28 442.58 509.61 446.30 494.88 L 446.04 493.82 C 439.08 493.26 432.02 493.77 425.03 493.58 C 422.72 493.70 420.28 493.20 418.07 493.99 M 501.41 495.21 C 499.42 503.06 497.26 510.87 495.30 518.73 C 504.73 519.89 514.41 518.78 523.93 519.29 C 512.30 529.53 500.63 539.74 488.95 549.93 C 487.27 551.54 484.92 552.83 484.45 555.30 C 482.93 561.57 481.21 567.79 479.65 574.04 L 479.88 575.06 L 480.91 575.36 C 503.60 575.39 526.30 575.40 548.99 575.34 C 549.40 575.22 550.22 574.97 550.63 574.85 C 552.80 566.61 555.35 558.41 556.95 550.05 C 547.05 549.47 537.10 550.11 527.19 549.74 C 539.20 538.22 552.06 527.53 564.21 516.15 C 566.19 511.25 567.02 505.83 568.55 500.73 C 569.01 498.43 570.16 496.18 569.92 493.80 C 548.63 493.28 527.29 493.77 505.98 493.56 C 504.42 493.69 501.73 493.00 501.41 495.21 M 909.12 554.27 C 906.67 560.48 904.51 566.80 902.17 573.05 C 901.49 574.92 900.77 577.17 901.97 579.02 C 903.45 580.08 906.24 579.94 906.77 577.87 C 908.15 569.83 909.55 561.77 909.91 553.60 L 909.12 554.27 Z" />
<path fill="#dad7cd" opacity="1.00" d=" M 358.51 367.28 C 374.30 366.05 390.14 364.34 406.00 365.03 C 411.40 385.36 417.23 405.66 422.33 426.02 C 373.87 422.82 325.41 419.77 276.95 416.60 C 267.61 415.59 257.95 414.10 249.73 409.26 C 245.55 406.74 241.72 402.18 242.63 396.99 C 243.74 392.84 247.54 390.24 251.02 388.14 C 259.47 383.42 268.86 380.75 278.17 378.32 C 304.44 371.51 331.62 369.98 358.51 367.28 Z" />
<path fill="#dad7cd" opacity="1.00" d=" M 855.24 485.44 C 856.69 484.64 858.34 485.18 859.88 485.41 C 869.83 487.08 879.71 489.71 888.81 494.15 C 891.13 495.14 893.03 497.38 893.02 500.01 C 893.17 502.94 894.15 506.09 892.99 508.92 C 890.63 510.06 888.38 507.56 886.25 506.73 C 875.50 500.45 863.93 495.18 854.52 486.90 C 854.70 486.53 855.06 485.81 855.24 485.44 Z" />
<path fill="#dad7cd" opacity="1.00" d=" M 602.29 517.47 C 608.30 515.00 617.99 515.35 619.88 522.97 C 611.87 523.64 603.71 523.32 595.67 523.17 C 596.29 520.27 599.78 518.74 602.29 517.47 Z" />
<path fill="#dad7cd" opacity="1.00" d=" M 590.05 545.00 L 590.97 544.66 C 602.45 544.70 613.94 544.48 625.42 544.77 L 625.20 545.86 C 617.04 550.30 607.59 552.85 598.28 551.54 C 594.69 550.97 590.91 548.76 590.05 545.00 Z" />
</g>
<g id="#344e41ff">
<path fill="#344e41" opacity="1.00" d=" M 341.04 362.31 C 367.65 359.80 394.36 358.41 421.09 357.98 C 468.68 355.99 516.36 363.89 561.57 378.53 C 581.76 385.12 601.55 392.99 620.59 402.41 C 632.41 408.16 643.62 415.22 654.90 421.84 C 654.42 421.62 653.46 421.18 652.98 420.97 C 647.87 421.09 642.67 421.11 637.71 422.46 C 624.89 412.91 610.58 405.51 596.08 398.85 C 580.57 391.95 564.94 385.14 548.53 380.65 C 508.27 369.03 466.14 364.69 424.32 365.44 L 423.83 365.97 C 431.84 386.89 440.25 407.72 448.58 428.54 C 514.08 433.38 579.57 438.46 645.07 443.35 C 653.70 444.17 662.51 445.56 671.13 443.85 C 673.05 443.38 675.84 442.41 675.71 439.98 C 674.91 435.03 669.86 432.45 667.19 428.94 C 673.51 433.51 681.52 436.31 685.80 443.26 C 687.59 445.49 687.20 449.12 684.57 450.54 C 678.68 453.80 671.60 453.62 665.06 453.47 C 594.33 448.38 523.59 443.42 452.90 437.88 C 429.33 435.62 405.67 434.63 382.06 433.03 C 352.99 431.18 323.91 429.30 294.91 426.56 C 281.04 425.11 267.05 424.03 253.50 420.59 C 242.59 417.57 231.39 412.92 224.08 403.90 C 222.50 401.61 220.23 398.99 221.18 396.01 C 222.77 390.79 227.88 387.85 232.36 385.37 C 244.55 379.26 257.93 376.04 271.22 373.32 C 294.13 367.69 317.59 364.65 341.04 362.31 M 358.51 367.28 C 331.62 369.98 304.44 371.51 278.17 378.32 C 268.86 380.75 259.47 383.42 251.02 388.14 C 247.54 390.24 243.74 392.84 242.63 396.99 C 241.72 402.18 245.55 406.74 249.73 409.26 C 257.95 414.10 267.61 415.59 276.95 416.60 C 325.41 419.77 373.87 422.82 422.33 426.02 C 417.23 405.66 411.40 385.36 406.00 365.03 C 390.14 364.34 374.30 366.05 358.51 367.28 Z" />
<path fill="#344e41" opacity="1.00" d=" M 124.26 435.25 C 125.08 433.77 126.59 431.08 128.62 432.31 C 134.96 437.58 140.40 443.82 146.45 449.40 C 148.37 450.93 148.57 453.94 146.53 455.46 C 138.49 462.19 130.47 469.10 121.30 474.26 C 119.10 475.22 116.54 477.01 114.11 475.80 C 112.93 473.05 114.01 469.94 114.15 467.08 C 115.99 456.08 119.22 445.22 124.26 435.25 Z" />
<path fill="#344e41" opacity="1.00" d=" M 846.14 483.41 C 860.73 482.55 875.06 486.73 888.25 492.67 C 890.99 494.16 895.02 494.35 896.35 497.64 C 898.72 502.46 901.25 507.48 901.59 512.93 C 901.68 514.81 899.56 515.63 898.01 515.28 C 894.73 514.93 891.69 513.55 888.66 512.38 C 879.26 508.65 870.13 504.08 862.12 497.86 C 857.67 494.35 852.88 491.24 848.73 487.37 C 847.69 486.19 846.13 485.12 846.14 483.41 M 855.24 485.44 C 855.06 485.81 854.70 486.53 854.52 486.90 C 863.93 495.18 875.50 500.45 886.25 506.73 C 888.38 507.56 890.63 510.06 892.99 508.92 C 894.15 506.09 893.17 502.94 893.02 500.01 C 893.03 497.38 891.13 495.14 888.81 494.15 C 879.71 489.71 869.83 487.08 859.88 485.41 C 858.34 485.18 856.69 484.64 855.24 485.44 Z" />
<path fill="#344e41" opacity="1.00" d=" M 170.40 528.35 C 184.12 516.96 202.21 511.55 219.91 512.23 C 218.98 516.06 218.47 519.99 218.17 523.93 C 205.34 523.79 191.98 526.64 181.50 534.38 C 166.60 544.66 156.48 562.66 157.60 580.99 C 155.87 609.15 180.19 635.39 208.03 637.39 C 216.56 637.42 225.47 638.12 233.44 634.44 C 253.42 627.37 268.65 608.28 270.52 587.09 C 270.91 584.12 271.56 581.10 270.88 578.12 C 268.99 577.31 266.86 577.52 264.88 577.79 C 264.62 580.07 264.75 582.38 264.66 584.68 C 260.11 585.00 255.55 584.71 251.09 583.78 C 245.99 583.85 241.02 582.61 235.94 582.63 C 232.04 582.52 228.04 580.70 224.22 582.21 C 221.79 583.57 222.35 587.09 224.45 588.49 C 233.18 595.48 242.04 602.30 250.98 609.02 C 252.00 609.91 253.32 610.66 253.82 611.99 C 252.25 614.84 250.03 617.30 247.40 619.23 C 241.88 623.99 235.38 627.97 228.25 629.66 C 227.32 628.77 227.19 627.42 226.80 626.28 C 224.20 616.60 221.16 607.04 218.78 597.31 C 218.09 595.12 217.60 592.72 216.02 590.98 C 214.06 589.16 210.54 590.64 210.17 593.24 C 206.75 605.42 202.71 617.43 199.46 629.67 C 190.92 627.29 183.29 622.22 177.07 615.99 C 175.35 613.32 172.37 611.31 171.49 608.22 C 181.87 600.97 192.83 594.45 203.35 587.35 C 205.30 586.32 205.55 583.47 204.00 581.98 C 202.27 579.91 199.29 580.84 196.97 580.67 C 185.75 580.65 174.53 580.81 163.32 580.68 C 163.11 571.52 166.02 562.40 170.59 554.53 C 172.04 552.37 173.31 549.84 175.57 548.44 C 183.60 555.43 191.86 562.14 200.04 568.95 C 201.91 570.55 203.66 572.49 206.08 573.27 C 208.72 573.55 211.03 570.52 210.06 568.06 C 206.62 557.47 202.93 546.96 199.75 536.29 C 199.51 535.04 198.75 533.70 199.31 532.45 C 205.30 530.25 211.74 530.33 218.02 530.14 C 218.25 538.91 220.38 547.76 225.06 555.26 C 222.08 559.38 220.80 564.44 218.85 569.08 C 217.52 572.10 221.43 575.09 224.05 573.24 C 227.57 570.94 231.09 568.62 234.40 566.04 C 247.60 577.30 266.20 578.73 282.71 576.35 C 283.19 587.60 280.81 598.91 276.23 609.18 C 267.19 629.58 247.53 644.59 225.60 648.46 C 216.75 649.30 207.67 649.70 198.93 647.68 C 189.14 645.59 180.06 640.94 172.04 635.04 C 167.90 631.46 164.06 627.56 160.40 623.51 C 151.85 612.16 145.93 598.34 145.96 583.96 C 144.82 567.87 150.24 551.75 160.01 539.03 C 163.23 535.24 166.79 531.76 170.40 528.35 Z" />
<path fill="#344e41" opacity="1.00" d=" M 789.94 513.15 C 806.35 511.38 823.24 515.69 836.62 525.38 C 848.62 534.33 858.31 546.87 862.39 561.42 C 865.25 570.35 865.21 579.81 864.70 589.08 C 862.21 613.95 844.34 636.28 821.02 644.95 C 807.70 650.15 792.75 650.25 778.94 647.04 C 767.18 644.05 756.84 637.08 747.92 629.04 C 743.03 623.16 738.18 617.12 734.89 610.17 C 729.98 598.88 727.26 586.48 728.54 574.16 C 729.38 571.47 729.46 568.65 729.22 565.86 C 731.10 571.92 737.00 575.70 743.05 576.58 C 742.30 576.68 740.80 576.89 740.04 576.99 C 739.24 586.44 741.39 596.11 745.17 604.77 C 752.64 621.58 768.95 633.80 786.95 637.07 C 792.57 637.70 798.25 637.34 803.89 637.36 C 820.50 635.63 835.61 625.59 844.75 611.79 C 848.87 604.78 852.04 597.09 853.26 589.01 C 853.42 580.94 854.14 572.61 851.38 564.85 C 848.46 556.01 844.13 547.28 837.01 541.06 C 829.42 532.63 818.73 527.49 807.75 525.15 C 802.60 524.08 797.29 524.78 792.07 524.61 C 786.33 524.35 780.83 526.31 775.56 528.35 C 769.78 530.47 764.48 533.86 759.92 537.97 C 761.74 531.62 763.23 525.17 765.03 518.83 C 772.54 518.36 780.13 518.89 787.66 518.60 C 789.28 517.37 789.31 514.97 789.94 513.15 Z" />
<path fill="#344e41" opacity="1.00" d=" M 781.43 532.51 C 792.03 529.34 803.52 529.47 813.99 533.09 C 814.44 533.38 815.35 533.95 815.80 534.24 C 815.11 537.44 813.50 540.33 812.30 543.35 C 808.79 551.90 805.18 560.43 801.65 568.96 C 800.55 572.00 804.43 575.27 807.10 573.17 C 817.14 566.60 826.69 559.31 836.63 552.59 C 838.91 551.21 839.99 554.50 841.07 555.91 C 845.91 564.58 848.24 574.74 847.67 584.66 C 837.69 585.16 827.88 582.79 817.92 582.60 C 814.35 582.19 810.73 581.03 807.15 582.02 C 804.25 584.14 805.74 588.05 808.45 589.52 C 817.65 596.68 826.95 603.72 836.12 610.91 C 837.43 611.58 836.20 612.92 835.66 613.64 C 829.18 621.17 820.68 627.04 811.12 629.86 L 810.58 629.57 C 807.18 617.33 803.76 605.08 800.30 592.86 C 799.52 589.90 795.32 589.21 793.77 591.86 C 791.57 596.70 790.74 602.02 788.96 607.01 C 787.06 613.44 785.02 619.81 783.26 626.28 C 782.73 627.40 782.74 629.06 781.47 629.66 C 770.67 625.40 759.94 618.76 754.37 608.24 C 758.01 605.12 762.47 603.14 766.36 600.34 C 772.28 596.65 777.85 592.41 783.93 588.98 C 785.29 588.02 787.24 587.29 787.47 585.41 C 788.22 583.20 786.46 580.49 784.03 580.69 C 771.47 580.58 758.91 580.81 746.35 580.76 C 746.21 579.57 746.12 578.39 746.07 577.21 C 757.48 578.12 769.42 576.14 779.37 570.28 C 779.61 569.16 779.78 568.03 779.87 566.89 C 783.10 568.19 784.96 571.44 788.12 572.87 C 790.40 574.28 793.69 571.53 792.98 569.05 C 789.38 556.82 785.03 544.59 781.43 532.51 Z" />
<path fill="#344e41" opacity="1.00" d=" M 909.12 554.27 L 909.91 553.60 C 909.55 561.77 908.15 569.83 906.77 577.87 C 906.24 579.94 903.45 580.08 901.97 579.02 C 900.77 577.17 901.49 574.92 902.17 573.05 C 904.51 566.80 906.67 560.48 909.12 554.27 Z" />
</g>
<g id="#a3b18aff">
<path fill="#a3b18a" opacity="1.00" d=" M 282.58 440.62 C 296.17 436.04 311.12 435.46 325.01 439.02 C 337.67 442.48 349.57 450.61 355.43 462.62 C 356.19 463.94 355.01 465.18 354.08 466.03 C 344.96 473.93 335.85 481.86 326.72 489.75 C 326.01 490.46 324.58 491.56 323.94 490.11 C 318.83 482.44 310.52 476.46 301.09 476.07 C 277.81 474.64 256.74 497.73 259.90 520.75 C 261.08 528.76 267.56 536.53 275.84 537.42 C 280.09 538.91 284.71 538.41 289.09 537.83 C 299.79 535.97 308.85 529.51 317.01 522.72 L 317.81 522.93 C 323.52 530.70 329.27 538.44 334.88 546.28 C 335.88 547.48 335.16 549.20 334.14 550.13 C 321.72 562.25 305.91 570.79 289.18 575.20 C 287.00 575.50 284.87 576.04 282.71 576.35 C 266.20 578.73 247.60 577.30 234.40 566.04 C 230.86 562.84 227.56 559.34 225.06 555.26 C 220.38 547.76 218.25 538.91 218.02 530.14 C 218.01 528.06 218.06 525.99 218.17 523.93 C 218.47 519.99 218.98 516.06 219.91 512.23 C 220.35 509.96 221.08 507.76 221.46 505.48 C 229.74 475.65 253.32 450.66 282.58 440.62 Z" />
<path fill="#a3b18a" opacity="1.00" d=" M 382.17 500.90 C 389.49 493.09 401.60 488.88 411.80 493.22 C 413.29 493.54 413.03 495.28 412.54 496.32 C 409.43 504.99 406.74 513.82 403.47 522.42 L 402.83 522.83 C 397.69 521.60 392.23 520.08 387.00 521.84 C 379.34 524.10 375.08 531.80 372.87 538.95 C 369.84 549.94 367.08 561.00 364.16 572.02 C 363.72 573.24 363.63 575.11 361.99 575.36 C 352.99 575.28 343.97 575.61 334.99 575.20 C 335.07 572.36 336.12 569.69 336.78 566.97 C 343.01 543.11 349.22 519.24 355.46 495.39 C 355.60 493.56 357.56 493.43 358.97 493.58 C 366.97 493.74 375.00 493.29 382.97 493.80 C 383.64 496.13 381.65 498.44 382.17 500.90 Z" />
<path fill="#a3b18a" opacity="1.00" d=" M 574.29 511.39 C 584.25 499.49 599.35 491.69 614.98 491.64 C 622.31 491.45 629.87 492.93 636.06 497.00 C 642.39 501.27 646.88 508.44 647.33 516.13 C 648.20 525.96 645.37 535.70 641.50 544.64 C 636.68 544.94 631.73 544.14 627.00 544.97 C 628.81 551.38 630.97 557.70 632.74 564.12 C 632.70 564.50 632.61 565.26 632.56 565.64 C 619.84 574.16 604.12 578.22 588.86 576.84 C 581.51 576.16 573.92 573.80 568.66 568.38 C 562.29 561.71 559.82 552.04 560.83 543.01 C 562.07 531.46 566.70 520.21 574.29 511.39 M 602.29 517.47 C 599.78 518.74 596.29 520.27 595.67 523.17 C 603.71 523.32 611.87 523.64 619.88 522.97 C 617.99 515.35 608.30 515.00 602.29 517.47 M 590.05 545.00 C 590.91 548.76 594.69 550.97 598.28 551.54 C 607.59 552.85 617.04 550.30 625.20 545.86 L 625.42 544.77 C 613.94 544.48 602.45 544.70 590.97 544.66 L 590.05 545.00 Z" />
<path fill="#a3b18a" opacity="1.00" d=" M 418.07 493.99 C 420.28 493.20 422.72 493.70 425.03 493.58 C 432.02 493.77 439.08 493.26 446.04 493.82 L 446.30 494.88 C 442.58 509.61 438.64 524.28 434.82 538.99 C 434.08 542.19 433.95 546.89 437.63 548.32 C 444.18 551.23 452.28 546.85 454.10 540.09 C 458.24 524.76 461.99 509.33 466.25 494.04 L 467.10 493.65 C 476.05 493.57 485.01 493.52 493.97 493.65 L 494.74 494.16 C 491.24 508.92 487.16 523.57 483.39 538.27 C 480.60 549.49 474.85 560.42 465.45 567.45 C 453.36 576.94 436.69 579.47 421.97 575.86 C 413.73 573.91 406.66 567.30 404.88 558.93 C 402.26 547.72 406.89 536.76 409.33 525.98 C 412.45 515.38 414.48 504.41 418.07 493.99 Z" />
<path fill="#a3b18a" opacity="1.00" d=" M 501.41 495.21 C 501.73 493.00 504.42 493.69 505.98 493.56 C 527.29 493.77 548.63 493.28 569.92 493.80 C 570.16 496.18 569.01 498.43 568.55 500.73 C 567.02 505.83 566.19 511.25 564.21 516.15 C 552.06 527.53 539.20 538.22 527.19 549.74 C 537.10 550.11 547.05 549.47 556.95 550.05 C 555.35 558.41 552.80 566.61 550.63 574.85 C 550.22 574.97 549.40 575.22 548.99 575.34 C 526.30 575.40 503.60 575.39 480.91 575.36 L 479.88 575.06 L 479.65 574.04 C 481.21 567.79 482.93 561.57 484.45 555.30 C 484.92 552.83 487.27 551.54 488.95 549.93 C 500.63 539.74 512.30 529.53 523.93 519.29 C 514.41 518.78 504.73 519.89 495.30 518.73 C 497.26 510.87 499.42 503.06 501.41 495.21 Z" />
</g>
<g id="#588157ff">
<path fill="#588157" opacity="1.00" d=" M 692.05 457.88 L 693.01 457.48 C 703.71 457.64 714.46 457.19 725.12 457.70 C 721.95 472.23 717.68 486.58 714.08 501.04 C 707.87 524.89 701.64 548.73 695.42 572.58 C 695.07 573.79 694.78 575.94 692.97 575.48 C 682.57 575.39 672.15 575.63 661.77 575.36 L 661.47 574.20 C 671.82 535.47 681.53 496.55 692.05 457.88 Z" />
<path fill="#588157" opacity="1.00" d=" M 751.11 464.10 C 760.38 464.07 769.65 463.99 778.92 464.15 C 777.28 473.68 773.96 482.93 771.97 492.42 C 779.57 492.52 787.17 492.36 794.77 492.48 C 794.78 496.79 792.77 500.98 791.91 505.23 C 791.03 507.81 790.39 510.46 789.94 513.15 C 789.31 514.97 789.28 517.37 787.66 518.60 C 780.13 518.89 772.54 518.36 765.03 518.83 C 763.23 525.17 761.74 531.62 759.92 537.97 C 759.08 540.83 758.24 544.25 760.05 546.91 C 763.36 550.39 768.67 548.93 772.68 547.66 C 774.65 547.24 776.52 545.58 778.60 546.33 C 779.20 553.16 778.31 560.18 779.87 566.89 C 779.78 568.03 779.61 569.16 779.37 570.28 C 769.42 576.14 757.48 578.12 746.07 577.21 C 745.31 577.05 743.80 576.73 743.05 576.58 C 737.00 575.70 731.10 571.92 729.22 565.86 C 726.87 560.48 727.95 554.50 727.90 548.83 C 730.47 538.77 733.33 528.73 735.63 518.61 C 732.03 518.21 727.85 519.45 724.61 518.05 C 726.22 510.73 728.40 503.54 730.17 496.25 C 730.54 494.97 730.71 493.54 731.63 492.50 C 735.40 492.27 739.21 492.69 742.96 492.30 C 745.49 483.03 747.61 473.64 750.38 464.45 L 751.11 464.10 Z" />
</g>
</svg>
